# MagicaVoxel @ ephtracy

# material
mtllib pig2.mtl
usemtl palette

# normals
vn -1 0 0
vn 1 0 0
vn 0 0 1
vn 0 0 -1
vn 0 -1 0
vn 0 1 0

# texcoords
vt 0.0527344 0.5
vt 0.720703 0.5
vt 0.724609 0.5
vt 0.728516 0.5
vt 0.732422 0.5
vt 0.736328 0.5

# verts
v -3 0 3
v -3 0 2
v -3 0 -2
v -3 0 -3
v -3 1 3
v -3 1 2
v -3 1 -2
v -3 1 -3
v -3 2 4
v -3 2 3
v -3 2 2
v -3 2 -2
v -3 2 -3
v -3 2 -4
v -3 5 2
v -3 5 1
v -3 5 -0
v -3 5 -1
v -3 5 -2
v -3 5 -4
v -3 6 1
v -3 6 -0
v -3 6 -1
v -3 6 -2
v -3 6 -3
v -3 7 4
v -3 7 2
v -3 7 -2
v -3 7 -3
v -3 7 -4
v -3 8 1
v -3 8 -0
v -3 8 -2
v -3 8 -3
v -3 8 -4
v -3 9 1
v -3 9 -0
v -3 9 -1
v -3 9 -2
v -3 9 -3
v -3 10 -0
v -3 10 -1
v -3 10 -2
v -3 11 -0
v -3 11 -1
v -2 2 6
v -2 2 5
v -2 2 4
v -2 4 6
v -2 4 5
v -2 4 4
v -2 5 5
v -2 5 4
v -2 6 5
v -2 6 4
v -2 7 3
v -2 7 2
v -2 8 3
v -2 8 2
v -1 3 -4
v -1 3 -5
v -1 4 -4
v -1 4 -5
v 0 4 -5
v 0 4 -6
v 0 5 -5
v 0 5 -6
v 1 2 6
v 1 2 5
v 1 4 6
v 1 4 5
v 1 5 5
v 1 5 4
v 1 6 5
v 1 6 4
v 1 7 3
v 1 7 2
v 1 8 3
v 1 8 2
v 2 0 3
v 2 0 2
v 2 0 -2
v 2 0 -3
v 2 1 3
v 2 1 2
v 2 1 -2
v 2 1 -3
v 2 2 3
v 2 2 2
v 2 2 -2
v 2 2 -3
v 2 5 1
v 2 5 -0
v 2 5 -1
v 2 5 -2
v 2 6 1
v 2 6 -0
v 2 6 -1
v 2 6 -2
v 2 6 -3
v 2 7 -2
v 2 7 -3
v 2 7 -4
v 2 8 1
v 2 8 -0
v 2 8 -2
v 2 8 -3
v 2 8 -4
v 2 9 1
v 2 9 -0
v 2 9 -1
v 2 9 -2
v 2 9 -3
v 2 10 -0
v 2 10 -1
v 2 10 -2
v 2 11 -0
v 2 11 -1
v -2 0 3
v -2 0 2
v -2 0 -2
v -2 0 -3
v -2 1 3
v -2 1 2
v -2 1 -2
v -2 1 -3
v -2 2 3
v -2 2 2
v -2 2 -2
v -2 2 -3
v -2 5 1
v -2 5 -0
v -2 5 -1
v -2 5 -2
v -2 6 1
v -2 6 -0
v -2 6 -1
v -2 6 -2
v -2 6 -3
v -2 7 -2
v -2 7 -3
v -2 7 -4
v -2 8 1
v -2 8 -0
v -2 8 -2
v -2 8 -3
v -2 8 -4
v -2 9 1
v -2 9 -0
v -2 9 -1
v -2 9 -2
v -2 9 -3
v -2 10 -0
v -2 10 -1
v -2 10 -2
v -2 11 -0
v -2 11 -1
v -1 2 6
v -1 2 5
v -1 4 6
v -1 4 5
v -1 5 5
v -1 5 4
v -1 6 5
v -1 6 4
v -1 7 3
v -1 7 2
v -1 8 3
v -1 8 2
v 0 3 -4
v 0 3 -5
v 0 4 -4
v 0 4 -5
v 1 4 -5
v 1 4 -6
v 1 5 -5
v 1 5 -6
v 2 2 6
v 2 2 5
v 2 2 4
v 2 4 6
v 2 4 5
v 2 4 4
v 2 5 5
v 2 5 4
v 2 6 5
v 2 6 4
v 2 7 3
v 2 7 2
v 2 8 3
v 2 8 2
v 3 0 3
v 3 0 2
v 3 0 -2
v 3 0 -3
v 3 1 3
v 3 1 2
v 3 1 -2
v 3 1 -3
v 3 2 4
v 3 2 3
v 3 2 2
v 3 2 -2
v 3 2 -3
v 3 2 -4
v 3 5 2
v 3 5 1
v 3 5 -0
v 3 5 -1
v 3 5 -2
v 3 5 -4
v 3 6 1
v 3 6 -0
v 3 6 -1
v 3 6 -2
v 3 6 -3
v 3 7 4
v 3 7 2
v 3 7 -2
v 3 7 -3
v 3 7 -4
v 3 8 1
v 3 8 -0
v 3 8 -2
v 3 8 -3
v 3 8 -4
v 3 9 1
v 3 9 -0
v 3 9 -1
v 3 9 -2
v 3 9 -3
v 3 10 -0
v 3 10 -1
v 3 10 -2
v 3 11 -0
v 3 11 -1
v -2 2 6
v -2 4 6
v -1 2 6
v -1 4 6
v 1 2 6
v 1 4 6
v 2 2 6
v 2 4 6
v -2 5 5
v -2 6 5
v -1 2 5
v -1 4 5
v -1 5 5
v -1 6 5
v 1 2 5
v 1 4 5
v 1 5 5
v 1 6 5
v 2 5 5
v 2 6 5
v -3 2 4
v -3 7 4
v -2 2 4
v -2 4 4
v -2 5 4
v -2 6 4
v -1 5 4
v -1 6 4
v 1 5 4
v 1 6 4
v 2 2 4
v 2 4 4
v 2 5 4
v 2 6 4
v 3 2 4
v 3 7 4
v -3 0 3
v -3 1 3
v -3 2 3
v -2 0 3
v -2 1 3
v -2 2 3
v -2 7 3
v -2 8 3
v -1 7 3
v -1 8 3
v 1 7 3
v 1 8 3
v 2 0 3
v 2 1 3
v 2 2 3
v 2 7 3
v 2 8 3
v 3 0 3
v 3 1 3
v 3 2 3
v -3 5 1
v -3 6 1
v -3 8 1
v -3 9 1
v -2 5 1
v -2 6 1
v -2 8 1
v -2 9 1
v 2 5 1
v 2 6 1
v 2 8 1
v 2 9 1
v 3 5 1
v 3 6 1
v 3 8 1
v 3 9 1
v -3 9 -0
v -3 10 -0
v -3 11 -0
v -2 9 -0
v -2 10 -0
v -2 11 -0
v 2 9 -0
v 2 10 -0
v 2 11 -0
v 3 9 -0
v 3 10 -0
v 3 11 -0
v -3 0 -2
v -3 1 -2
v -3 2 -2
v -2 0 -2
v -2 1 -2
v -2 2 -2
v 2 0 -2
v 2 1 -2
v 2 2 -2
v 3 0 -2
v 3 1 -2
v 3 2 -2
v 0 4 -5
v 0 5 -5
v 1 4 -5
v 1 5 -5
v -3 0 2
v -3 1 2
v -3 2 2
v -3 5 2
v -3 7 2
v -2 0 2
v -2 1 2
v -2 2 2
v -2 7 2
v -2 8 2
v -1 7 2
v -1 8 2
v 1 7 2
v 1 8 2
v 2 0 2
v 2 1 2
v 2 2 2
v 2 7 2
v 2 8 2
v 3 0 2
v 3 1 2
v 3 2 2
v 3 5 2
v 3 7 2
v -3 10 -1
v -3 11 -1
v -2 10 -1
v -2 11 -1
v 2 10 -1
v 2 11 -1
v 3 10 -1
v 3 11 -1
v -3 5 -2
v -3 6 -2
v -3 9 -2
v -3 10 -2
v -2 5 -2
v -2 6 -2
v -2 9 -2
v -2 10 -2
v 2 5 -2
v 2 6 -2
v 2 9 -2
v 2 10 -2
v 3 5 -2
v 3 6 -2
v 3 9 -2
v 3 10 -2
v -3 0 -3
v -3 1 -3
v -3 2 -3
v -3 6 -3
v -3 7 -3
v -3 8 -3
v -3 9 -3
v -2 0 -3
v -2 1 -3
v -2 2 -3
v -2 6 -3
v -2 7 -3
v -2 8 -3
v -2 9 -3
v 2 0 -3
v 2 1 -3
v 2 2 -3
v 2 6 -3
v 2 7 -3
v 2 8 -3
v 2 9 -3
v 3 0 -3
v 3 1 -3
v 3 2 -3
v 3 6 -3
v 3 7 -3
v 3 8 -3
v 3 9 -3
v -3 2 -4
v -3 5 -4
v -3 7 -4
v -3 8 -4
v -2 7 -4
v -2 8 -4
v -1 3 -4
v -1 4 -4
v 0 3 -4
v 0 4 -4
v 2 7 -4
v 2 8 -4
v 3 2 -4
v 3 5 -4
v 3 7 -4
v 3 8 -4
v -1 3 -5
v -1 4 -5
v 0 3 -5
v 0 4 -5
v 0 4 -6
v 0 5 -6
v 1 4 -6
v 1 5 -6
v -3 0 3
v -2 0 3
v 2 0 3
v 3 0 3
v -3 0 2
v -2 0 2
v 2 0 2
v 3 0 2
v -3 0 -2
v -2 0 -2
v 2 0 -2
v 3 0 -2
v -3 0 -3
v -2 0 -3
v 2 0 -3
v 3 0 -3
v -2 2 6
v -1 2 6
v 1 2 6
v 2 2 6
v -2 2 5
v -1 2 5
v 1 2 5
v 2 2 5
v -3 2 4
v -2 2 4
v 2 2 4
v 3 2 4
v -3 2 3
v -2 2 3
v 2 2 3
v 3 2 3
v -3 2 2
v -2 2 2
v 2 2 2
v 3 2 2
v -3 2 -2
v -2 2 -2
v 2 2 -2
v 3 2 -2
v -3 2 -3
v -2 2 -3
v 2 2 -3
v 3 2 -3
v -3 2 -4
v 3 2 -4
v -1 3 -4
v 0 3 -4
v -1 3 -5
v 0 3 -5
v 0 4 -5
v 1 4 -5
v 0 4 -6
v 1 4 -6
v -2 5 5
v -1 5 5
v 1 5 5
v 2 5 5
v -2 5 4
v -1 5 4
v 1 5 4
v 2 5 4
v -3 6 -2
v -2 6 -2
v 2 6 -2
v 3 6 -2
v -3 6 -3
v -2 6 -3
v 2 6 -3
v 3 6 -3
v -3 7 -3
v -2 7 -3
v 2 7 -3
v 3 7 -3
v -3 7 -4
v -2 7 -4
v 2 7 -4
v 3 7 -4
v -2 4 6
v -1 4 6
v 1 4 6
v 2 4 6
v -2 4 5
v -1 4 5
v 1 4 5
v 2 4 5
v -2 4 4
v 2 4 4
v -1 4 -4
v 0 4 -4
v -1 4 -5
v 0 4 -5
v -3 5 2
v 3 5 2
v -3 5 1
v -2 5 1
v 2 5 1
v 3 5 1
v -2 5 -0
v 2 5 -0
v -2 5 -1
v 2 5 -1
v -3 5 -2
v -2 5 -2
v 2 5 -2
v 3 5 -2
v -3 5 -4
v 3 5 -4
v 0 5 -5
v 1 5 -5
v 0 5 -6
v 1 5 -6
v -2 6 5
v -1 6 5
v 1 6 5
v 2 6 5
v -2 6 4
v -1 6 4
v 1 6 4
v 2 6 4
v -3 7 4
v 3 7 4
v -2 7 3
v -1 7 3
v 1 7 3
v 2 7 3
v -3 7 2
v -2 7 2
v -1 7 2
v 1 7 2
v 2 7 2
v 3 7 2
v -2 8 3
v -1 8 3
v 1 8 3
v 2 8 3
v -2 8 2
v -1 8 2
v 1 8 2
v 2 8 2
v -3 8 -3
v -2 8 -3
v 2 8 -3
v 3 8 -3
v -3 8 -4
v -2 8 -4
v 2 8 -4
v 3 8 -4
v -3 9 1
v -2 9 1
v 2 9 1
v 3 9 1
v -3 9 -0
v -2 9 -0
v 2 9 -0
v 3 9 -0
v -3 9 -2
v -2 9 -2
v 2 9 -2
v 3 9 -2
v -3 9 -3
v -2 9 -3
v 2 9 -3
v 3 9 -3
v -3 10 -1
v -2 10 -1
v 2 10 -1
v 3 10 -1
v -3 10 -2
v -2 10 -2
v 2 10 -2
v 3 10 -2
v -3 11 -0
v -2 11 -0
v 2 11 -0
v 3 11 -0
v -3 11 -1
v -2 11 -1
v 2 11 -1
v 3 11 -1

# faces
f 5/3/1 2/3/1 1/3/1
f 6/3/1 2/3/1 5/3/1
f 7/3/1 4/3/1 3/3/1
f 8/3/1 4/3/1 7/3/1
f 10/4/1 6/4/1 5/4/1
f 11/4/1 6/4/1 10/4/1
f 12/4/1 8/4/1 7/4/1
f 13/4/1 8/4/1 12/4/1
f 15/4/1 13/4/1 12/4/1
f 15/4/1 14/4/1 13/4/1
f 15/4/1 12/4/1 11/4/1
f 15/4/1 11/4/1 10/4/1
f 15/4/1 10/4/1 9/4/1
f 16/4/1 14/4/1 15/4/1
f 17/4/1 14/4/1 16/4/1
f 18/4/1 14/4/1 17/4/1
f 19/4/1 14/4/1 18/4/1
f 20/4/1 14/4/1 19/4/1
f 21/6/1 17/6/1 16/6/1
f 22/5/1 18/5/1 17/5/1
f 22/6/1 17/6/1 21/6/1
f 23/6/1 19/6/1 18/6/1
f 23/5/1 18/5/1 22/5/1
f 24/6/1 19/6/1 23/6/1
f 26/4/1 15/4/1 9/4/1
f 27/4/1 15/4/1 26/4/1
f 28/6/1 25/6/1 24/6/1
f 28/5/1 22/5/1 21/5/1
f 28/5/1 23/5/1 22/5/1
f 28/5/1 24/5/1 23/5/1
f 29/6/1 25/6/1 28/6/1
f 31/5/1 28/5/1 21/5/1
f 31/5/1 29/5/1 28/5/1
f 32/5/1 29/5/1 31/5/1
f 33/5/1 29/5/1 32/5/1
f 34/6/1 30/6/1 29/6/1
f 34/5/1 29/5/1 33/5/1
f 35/6/1 30/6/1 34/6/1
f 36/6/1 32/6/1 31/6/1
f 37/5/1 33/5/1 32/5/1
f 37/6/1 32/6/1 36/6/1
f 38/5/1 33/5/1 37/5/1
f 39/6/1 34/6/1 33/6/1
f 39/5/1 33/5/1 38/5/1
f 40/6/1 34/6/1 39/6/1
f 41/5/1 38/5/1 37/5/1
f 42/6/1 39/6/1 38/6/1
f 42/5/1 38/5/1 41/5/1
f 43/6/1 39/6/1 42/6/1
f 44/6/1 42/6/1 41/6/1
f 45/6/1 42/6/1 44/6/1
f 49/3/1 47/3/1 46/3/1
f 50/4/1 48/4/1 47/4/1
f 50/3/1 47/3/1 49/3/1
f 51/4/1 48/4/1 50/4/1
f 54/2/1 53/2/1 52/2/1
f 55/2/1 53/2/1 54/2/1
f 58/3/1 57/3/1 56/3/1
f 59/3/1 57/3/1 58/3/1
f 62/4/1 61/4/1 60/4/1
f 63/4/1 61/4/1 62/4/1
f 66/3/1 65/3/1 64/3/1
f 67/3/1 65/3/1 66/3/1
f 70/3/1 69/3/1 68/3/1
f 71/3/1 69/3/1 70/3/1
f 74/2/1 73/2/1 72/2/1
f 75/2/1 73/2/1 74/2/1
f 78/3/1 77/3/1 76/3/1
f 79/3/1 77/3/1 78/3/1
f 84/3/1 81/3/1 80/3/1
f 85/3/1 81/3/1 84/3/1
f 86/3/1 83/3/1 82/3/1
f 87/3/1 83/3/1 86/3/1
f 88/4/1 85/4/1 84/4/1
f 89/4/1 85/4/1 88/4/1
f 90/4/1 87/4/1 86/4/1
f 91/4/1 87/4/1 90/4/1
f 96/6/1 93/6/1 92/6/1
f 97/5/1 94/5/1 93/5/1
f 97/6/1 93/6/1 96/6/1
f 98/6/1 95/6/1 94/6/1
f 98/5/1 94/5/1 97/5/1
f 99/6/1 95/6/1 98/6/1
f 101/5/1 97/5/1 96/5/1
f 101/6/1 100/6/1 99/6/1
f 101/5/1 99/5/1 98/5/1
f 101/5/1 98/5/1 97/5/1
f 102/6/1 100/6/1 101/6/1
f 104/5/1 102/5/1 101/5/1
f 104/5/1 101/5/1 96/5/1
f 105/5/1 102/5/1 104/5/1
f 106/5/1 102/5/1 105/5/1
f 107/6/1 103/6/1 102/6/1
f 107/5/1 102/5/1 106/5/1
f 108/6/1 103/6/1 107/6/1
f 109/6/1 105/6/1 104/6/1
f 110/5/1 106/5/1 105/5/1
f 110/6/1 105/6/1 109/6/1
f 111/5/1 106/5/1 110/5/1
f 112/6/1 107/6/1 106/6/1
f 112/5/1 106/5/1 111/5/1
f 113/6/1 107/6/1 112/6/1
f 114/5/1 111/5/1 110/5/1
f 115/6/1 112/6/1 111/6/1
f 115/5/1 111/5/1 114/5/1
f 116/6/1 112/6/1 115/6/1
f 117/6/1 115/6/1 114/6/1
f 118/6/1 115/6/1 117/6/1
f 119/3/2 120/3/2 123/3/2
f 123/3/2 120/3/2 124/3/2
f 121/3/2 122/3/2 125/3/2
f 125/3/2 122/3/2 126/3/2
f 123/4/2 124/4/2 127/4/2
f 127/4/2 124/4/2 128/4/2
f 125/4/2 126/4/2 129/4/2
f 129/4/2 126/4/2 130/4/2
f 131/6/2 132/6/2 135/6/2
f 132/5/2 133/5/2 136/5/2
f 135/6/2 132/6/2 136/6/2
f 133/6/2 134/6/2 137/6/2
f 136/5/2 133/5/2 137/5/2
f 137/6/2 134/6/2 138/6/2
f 135/5/2 136/5/2 140/5/2
f 138/6/2 139/6/2 140/6/2
f 137/5/2 138/5/2 140/5/2
f 136/5/2 137/5/2 140/5/2
f 140/6/2 139/6/2 141/6/2
f 140/5/2 141/5/2 143/5/2
f 135/5/2 140/5/2 143/5/2
f 143/5/2 141/5/2 144/5/2
f 144/5/2 141/5/2 145/5/2
f 141/6/2 142/6/2 146/6/2
f 145/5/2 141/5/2 146/5/2
f 146/6/2 142/6/2 147/6/2
f 143/6/2 144/6/2 148/6/2
f 144/5/2 145/5/2 149/5/2
f 148/6/2 144/6/2 149/6/2
f 149/5/2 145/5/2 150/5/2
f 145/6/2 146/6/2 151/6/2
f 150/5/2 145/5/2 151/5/2
f 151/6/2 146/6/2 152/6/2
f 149/5/2 150/5/2 153/5/2
f 150/6/2 151/6/2 154/6/2
f 153/5/2 150/5/2 154/5/2
f 154/6/2 151/6/2 155/6/2
f 153/6/2 154/6/2 156/6/2
f 156/6/2 154/6/2 157/6/2
f 158/3/2 159/3/2 160/3/2
f 160/3/2 159/3/2 161/3/2
f 162/2/2 163/2/2 164/2/2
f 164/2/2 163/2/2 165/2/2
f 166/3/2 167/3/2 168/3/2
f 168/3/2 167/3/2 169/3/2
f 170/4/2 171/4/2 172/4/2
f 172/4/2 171/4/2 173/4/2
f 174/3/2 175/3/2 176/3/2
f 176/3/2 175/3/2 177/3/2
f 178/3/2 179/3/2 181/3/2
f 179/4/2 180/4/2 182/4/2
f 181/3/2 179/3/2 182/3/2
f 182/4/2 180/4/2 183/4/2
f 184/2/2 185/2/2 186/2/2
f 186/2/2 185/2/2 187/2/2
f 188/3/2 189/3/2 190/3/2
f 190/3/2 189/3/2 191/3/2
f 192/3/2 193/3/2 196/3/2
f 196/3/2 193/3/2 197/3/2
f 194/3/2 195/3/2 198/3/2
f 198/3/2 195/3/2 199/3/2
f 196/4/2 197/4/2 201/4/2
f 201/4/2 197/4/2 202/4/2
f 198/4/2 199/4/2 203/4/2
f 203/4/2 199/4/2 204/4/2
f 203/4/2 204/4/2 206/4/2
f 204/4/2 205/4/2 206/4/2
f 202/4/2 203/4/2 206/4/2
f 201/4/2 202/4/2 206/4/2
f 200/4/2 201/4/2 206/4/2
f 206/4/2 205/4/2 207/4/2
f 207/4/2 205/4/2 208/4/2
f 208/4/2 205/4/2 209/4/2
f 209/4/2 205/4/2 210/4/2
f 210/4/2 205/4/2 211/4/2
f 207/6/2 208/6/2 212/6/2
f 208/5/2 209/5/2 213/5/2
f 212/6/2 208/6/2 213/6/2
f 209/6/2 210/6/2 214/6/2
f 213/5/2 209/5/2 214/5/2
f 214/6/2 210/6/2 215/6/2
f 200/4/2 206/4/2 217/4/2
f 217/4/2 206/4/2 218/4/2
f 215/6/2 216/6/2 219/6/2
f 212/5/2 213/5/2 219/5/2
f 213/5/2 214/5/2 219/5/2
f 214/5/2 215/5/2 219/5/2
f 219/6/2 216/6/2 220/6/2
f 212/5/2 219/5/2 222/5/2
f 219/5/2 220/5/2 222/5/2
f 222/5/2 220/5/2 223/5/2
f 223/5/2 220/5/2 224/5/2
f 220/6/2 221/6/2 225/6/2
f 224/5/2 220/5/2 225/5/2
f 225/6/2 221/6/2 226/6/2
f 222/6/2 223/6/2 227/6/2
f 223/5/2 224/5/2 228/5/2
f 227/6/2 223/6/2 228/6/2
f 228/5/2 224/5/2 229/5/2
f 224/6/2 225/6/2 230/6/2
f 229/5/2 224/5/2 230/5/2
f 230/6/2 225/6/2 231/6/2
f 228/5/2 229/5/2 232/5/2
f 229/6/2 230/6/2 233/6/2
f 232/5/2 229/5/2 233/5/2
f 233/6/2 230/6/2 234/6/2
f 232/6/2 233/6/2 235/6/2
f 235/6/2 233/6/2 236/6/2
f 239/3/3 238/3/3 237/3/3
f 240/3/3 238/3/3 239/3/3
f 243/3/3 242/3/3 241/3/3
f 244/3/3 242/3/3 243/3/3
f 249/2/3 246/2/3 245/2/3
f 250/2/3 246/2/3 249/2/3
f 251/4/3 248/4/3 247/4/3
f 252/4/3 248/4/3 251/4/3
f 255/2/3 254/2/3 253/2/3
f 256/2/3 254/2/3 255/2/3
f 259/4/3 258/4/3 257/4/3
f 260/4/3 258/4/3 259/4/3
f 261/4/3 258/4/3 260/4/3
f 262/4/3 258/4/3 261/4/3
f 263/4/3 261/4/3 260/4/3
f 264/4/3 258/4/3 262/4/3
f 265/4/3 263/4/3 260/4/3
f 265/4/3 264/4/3 263/4/3
f 266/4/3 258/4/3 264/4/3
f 266/4/3 264/4/3 265/4/3
f 268/4/3 265/4/3 260/4/3
f 269/4/3 265/4/3 268/4/3
f 270/4/3 258/4/3 266/4/3
f 271/4/3 269/4/3 268/4/3
f 271/4/3 270/4/3 269/4/3
f 271/4/3 268/4/3 267/4/3
f 272/4/3 258/4/3 270/4/3
f 272/4/3 270/4/3 271/4/3
f 276/3/3 274/3/3 273/3/3
f 277/4/3 275/4/3 274/4/3
f 277/3/3 274/3/3 276/3/3
f 278/4/3 275/4/3 277/4/3
f 281/3/3 280/3/3 279/3/3
f 282/3/3 280/3/3 281/3/3
f 288/3/3 284/3/3 283/3/3
f 289/3/3 284/3/3 288/3/3
f 290/3/3 286/3/3 285/3/3
f 291/4/3 287/4/3 286/4/3
f 291/3/3 286/3/3 290/3/3
f 292/4/3 287/4/3 291/4/3
f 297/6/3 294/6/3 293/6/3
f 298/5/3 295/5/3 294/5/3
f 298/6/3 294/6/3 297/6/3
f 299/6/3 296/6/3 295/6/3
f 299/5/3 295/5/3 298/5/3
f 300/6/3 296/6/3 299/6/3
f 305/6/3 302/6/3 301/6/3
f 306/5/3 303/5/3 302/5/3
f 306/6/3 302/6/3 305/6/3
f 307/6/3 304/6/3 303/6/3
f 307/5/3 303/5/3 306/5/3
f 308/6/3 304/6/3 307/6/3
f 312/5/3 310/5/3 309/5/3
f 313/6/3 311/6/3 310/6/3
f 313/5/3 310/5/3 312/5/3
f 314/6/3 311/6/3 313/6/3
f 318/5/3 316/5/3 315/5/3
f 319/6/3 317/6/3 316/6/3
f 319/5/3 316/5/3 318/5/3
f 320/6/3 317/6/3 319/6/3
f 324/3/3 322/3/3 321/3/3
f 325/4/3 323/4/3 322/4/3
f 325/3/3 322/3/3 324/3/3
f 326/4/3 323/4/3 325/4/3
f 330/3/3 328/3/3 327/3/3
f 331/4/3 329/4/3 328/4/3
f 331/3/3 328/3/3 330/3/3
f 332/4/3 329/4/3 331/4/3
f 335/3/3 334/3/3 333/3/3
f 336/3/3 334/3/3 335/3/3
f 337/3/4 338/3/4 342/3/4
f 338/4/4 339/4/4 343/4/4
f 342/3/4 338/3/4 343/3/4
f 343/4/4 339/4/4 344/4/4
f 340/4/4 341/4/4 345/4/4
f 345/3/4 346/3/4 347/3/4
f 340/4/4 345/4/4 347/4/4
f 347/3/4 346/3/4 348/3/4
f 340/4/4 347/4/4 349/4/4
f 340/4/4 349/4/4 354/4/4
f 349/3/4 350/3/4 354/3/4
f 354/3/4 350/3/4 355/3/4
f 351/3/4 352/3/4 356/3/4
f 352/4/4 353/4/4 357/4/4
f 356/3/4 352/3/4 357/3/4
f 357/4/4 353/4/4 358/4/4
f 340/4/4 354/4/4 359/4/4
f 359/4/4 354/4/4 360/4/4
f 361/6/4 362/6/4 363/6/4
f 363/6/4 362/6/4 364/6/4
f 365/6/4 366/6/4 367/6/4
f 367/6/4 366/6/4 368/6/4
f 369/6/4 370/6/4 373/6/4
f 373/6/4 370/6/4 374/6/4
f 371/6/4 372/6/4 375/6/4
f 375/6/4 372/6/4 376/6/4
f 377/6/4 378/6/4 381/6/4
f 381/6/4 378/6/4 382/6/4
f 379/6/4 380/6/4 383/6/4
f 383/6/4 380/6/4 384/6/4
f 385/3/4 386/3/4 392/3/4
f 386/4/4 387/4/4 393/4/4
f 392/3/4 386/3/4 393/3/4
f 393/4/4 387/4/4 394/4/4
f 388/6/4 389/6/4 395/6/4
f 395/6/4 389/6/4 396/6/4
f 390/6/4 391/6/4 397/6/4
f 397/6/4 391/6/4 398/6/4
f 399/3/4 400/3/4 406/3/4
f 400/4/4 401/4/4 407/4/4
f 406/3/4 400/3/4 407/3/4
f 407/4/4 401/4/4 408/4/4
f 402/6/4 403/6/4 409/6/4
f 409/6/4 403/6/4 410/6/4
f 404/6/4 405/6/4 411/6/4
f 411/6/4 405/6/4 412/6/4
f 415/6/4 416/6/4 417/6/4
f 417/6/4 416/6/4 418/6/4
f 413/4/4 414/4/4 419/4/4
f 419/4/4 414/4/4 420/4/4
f 413/4/4 419/4/4 421/4/4
f 420/4/4 414/4/4 422/4/4
f 413/4/4 421/4/4 425/4/4
f 421/4/4 422/4/4 425/4/4
f 422/4/4 414/4/4 426/4/4
f 425/4/4 422/4/4 426/4/4
f 423/6/4 424/6/4 427/6/4
f 427/6/4 424/6/4 428/6/4
f 429/4/4 430/4/4 431/4/4
f 431/4/4 430/4/4 432/4/4
f 433/3/4 434/3/4 435/3/4
f 435/3/4 434/3/4 436/3/4
f 441/3/5 438/3/5 437/3/5
f 442/3/5 438/3/5 441/3/5
f 443/3/5 440/3/5 439/3/5
f 444/3/5 440/3/5 443/3/5
f 449/3/5 446/3/5 445/3/5
f 450/3/5 446/3/5 449/3/5
f 451/3/5 448/3/5 447/3/5
f 452/3/5 448/3/5 451/3/5
f 457/3/5 454/3/5 453/3/5
f 458/3/5 454/3/5 457/3/5
f 459/3/5 456/3/5 455/3/5
f 460/3/5 456/3/5 459/3/5
f 462/4/5 458/4/5 457/4/5
f 462/4/5 459/4/5 458/4/5
f 462/4/5 460/4/5 459/4/5
f 463/4/5 460/4/5 462/4/5
f 465/4/5 463/4/5 462/4/5
f 465/4/5 464/4/5 463/4/5
f 465/4/5 462/4/5 461/4/5
f 466/4/5 464/4/5 465/4/5
f 467/4/5 464/4/5 466/4/5
f 468/4/5 464/4/5 467/4/5
f 470/4/5 467/4/5 466/4/5
f 471/4/5 467/4/5 470/4/5
f 473/4/5 470/4/5 469/4/5
f 473/4/5 472/4/5 471/4/5
f 473/4/5 471/4/5 470/4/5
f 474/4/5 472/4/5 473/4/5
f 475/4/5 472/4/5 474/4/5
f 476/4/5 472/4/5 475/4/5
f 478/4/5 475/4/5 474/4/5
f 479/4/5 475/4/5 478/4/5
f 481/4/5 478/4/5 477/4/5
f 481/4/5 480/4/5 479/4/5
f 481/4/5 479/4/5 478/4/5
f 482/4/5 480/4/5 481/4/5
f 485/4/5 484/4/5 483/4/5
f 486/4/5 484/4/5 485/4/5
f 489/3/5 488/3/5 487/3/5
f 490/3/5 488/3/5 489/3/5
f 495/2/5 492/2/5 491/2/5
f 496/2/5 492/2/5 495/2/5
f 497/2/5 494/2/5 493/2/5
f 498/2/5 494/2/5 497/2/5
f 503/6/5 500/6/5 499/6/5
f 504/6/5 500/6/5 503/6/5
f 505/6/5 502/6/5 501/6/5
f 506/6/5 502/6/5 505/6/5
f 511/6/5 508/6/5 507/6/5
f 512/6/5 508/6/5 511/6/5
f 513/6/5 510/6/5 509/6/5
f 514/6/5 510/6/5 513/6/5
f 515/3/6 516/3/6 519/3/6
f 519/3/6 516/3/6 520/3/6
f 517/3/6 518/3/6 521/3/6
f 521/3/6 518/3/6 522/3/6
f 519/4/6 520/4/6 523/4/6
f 520/4/6 521/4/6 523/4/6
f 521/4/6 522/4/6 523/4/6
f 523/4/6 522/4/6 524/4/6
f 525/4/6 526/4/6 527/4/6
f 527/4/6 526/4/6 528/4/6
f 529/4/6 530/4/6 531/4/6
f 531/4/6 530/4/6 532/4/6
f 532/4/6 530/4/6 533/4/6
f 533/4/6 530/4/6 534/4/6
f 532/4/6 533/4/6 535/4/6
f 535/4/6 533/4/6 536/4/6
f 535/4/6 536/4/6 537/4/6
f 537/4/6 536/4/6 538/4/6
f 537/4/6 538/4/6 540/4/6
f 540/4/6 538/4/6 541/4/6
f 540/4/6 541/4/6 543/4/6
f 541/4/6 542/4/6 543/4/6
f 539/4/6 540/4/6 543/4/6
f 543/4/6 542/4/6 544/4/6
f 545/3/6 546/3/6 547/3/6
f 547/3/6 546/3/6 548/3/6
f 549/2/6 550/2/6 553/2/6
f 553/2/6 550/2/6 554/2/6
f 551/2/6 552/2/6 555/2/6
f 555/2/6 552/2/6 556/2/6
f 557/4/6 558/4/6 559/4/6
f 559/4/6 558/4/6 560/4/6
f 560/4/6 558/4/6 561/4/6
f 561/4/6 558/4/6 562/4/6
f 557/4/6 559/4/6 563/4/6
f 563/4/6 559/4/6 564/4/6
f 560/4/6 561/4/6 565/4/6
f 565/4/6 561/4/6 566/4/6
f 562/4/6 558/4/6 567/4/6
f 567/4/6 558/4/6 568/4/6
f 569/3/6 570/3/6 573/3/6
f 573/3/6 570/3/6 574/3/6
f 571/3/6 572/3/6 575/3/6
f 575/3/6 572/3/6 576/3/6
f 577/6/6 578/6/6 581/6/6
f 581/6/6 578/6/6 582/6/6
f 579/6/6 580/6/6 583/6/6
f 583/6/6 580/6/6 584/6/6
f 585/6/6 586/6/6 589/6/6
f 589/6/6 586/6/6 590/6/6
f 587/6/6 588/6/6 591/6/6
f 591/6/6 588/6/6 592/6/6
f 593/6/6 594/6/6 597/6/6
f 597/6/6 594/6/6 598/6/6
f 595/6/6 596/6/6 599/6/6
f 599/6/6 596/6/6 600/6/6
f 601/6/6 602/6/6 605/6/6
f 605/6/6 602/6/6 606/6/6
f 603/6/6 604/6/6 607/6/6
f 607/6/6 604/6/6 608/6/6
f 609/6/6 610/6/6 613/6/6
f 613/6/6 610/6/6 614/6/6
f 611/6/6 612/6/6 615/6/6
f 615/6/6 612/6/6 616/6/6
