# MagicaVoxel @ ephtracy

# material
mtllib snake.mtl
usemtl palette

# normals
vn -1 0 0
vn 1 0 0
vn 0 0 1
vn 0 0 -1
vn 0 -1 0
vn 0 1 0

# texcoords
vt 0.751953 0.5
vt 0.755859 0.5
vt 0.814453 0.5
vt 0.826172 0.5
vt 0.830078 0.5
vt 0.845703 0.5

# verts
v -3 3 2
v -3 3 1
v -3 4 3
v -3 4 2
v -3 4 1
v -3 4 -0
v -3 5 3
v -3 5 2
v -3 5 1
v -3 5 -0
v -3 6 2
v -3 6 1
v -2 0 2
v -2 0 1
v -2 1 2
v -2 1 1
v -2 3 4
v -2 3 2
v -2 4 5
v -2 4 4
v -2 4 3
v -2 4 2
v -2 5 5
v -2 5 4
v -2 5 3
v -2 5 2
v -2 6 4
v -2 6 3
v -2 6 2
v -1 0 3
v -1 0 2
v -1 0 1
v -1 0 -3
v -1 1 2
v -1 1 1
v -1 1 -2
v -1 2 -2
v -1 2 -3
v -1 2 -4
v -1 3 7
v -1 3 6
v -1 3 3
v -1 3 2
v -1 3 -3
v -1 3 -4
v -1 4 7
v -1 4 6
v -1 4 5
v -1 5 6
v -1 5 5
v 0 5 4
v 0 5 3
v 0 6 4
v 0 6 3
v -2 3 2
v -2 3 1
v -2 4 2
v -2 4 1
v -2 4 -0
v -2 5 2
v -2 5 1
v -2 5 -0
v -2 6 2
v -2 6 1
v -1 0 2
v -1 0 1
v -1 1 2
v -1 1 1
v -1 5 4
v -1 5 3
v -1 6 4
v -1 6 3
v 0 0 3
v 0 0 2
v 0 0 1
v 0 0 -3
v 0 1 1
v 0 1 -2
v 0 2 -2
v 0 2 -3
v 0 2 -4
v 0 3 7
v 0 3 6
v 0 3 3
v 0 3 2
v 0 3 -3
v 0 3 -4
v 0 4 7
v 0 4 6
v 0 4 5
v 0 5 6
v 0 5 5
v 1 3 4
v 1 3 2
v 1 4 5
v 1 4 4
v 1 5 5
v 1 5 4
v 1 5 3
v 1 6 4
v 1 6 3
v 1 6 2
v -1 3 7
v -1 4 7
v 0 3 7
v 0 4 7
v -1 4 6
v -1 5 6
v 0 4 6
v 0 5 6
v -2 4 5
v -2 5 5
v -1 4 5
v -1 5 5
v 0 4 5
v 0 5 5
v 1 4 5
v 1 5 5
v -2 3 4
v -2 4 4
v -2 5 4
v -2 6 4
v -1 5 4
v -1 6 4
v 0 5 4
v 0 6 4
v 1 3 4
v 1 4 4
v 1 5 4
v 1 6 4
v -3 4 3
v -3 5 3
v -2 4 3
v -2 5 3
v -1 0 3
v -1 3 3
v -1 5 3
v -1 6 3
v 0 0 3
v 0 3 3
v 0 5 3
v 0 6 3
v -3 3 2
v -3 4 2
v -3 5 2
v -3 6 2
v -2 0 2
v -2 1 2
v -2 3 2
v -2 4 2
v -2 5 2
v -2 6 2
v -1 0 2
v -1 1 2
v -1 0 1
v -1 1 1
v 0 0 1
v 0 1 1
v -1 1 -2
v -1 2 -2
v 0 1 -2
v 0 2 -2
v -1 2 -3
v -1 3 -3
v 0 2 -3
v 0 3 -3
v -1 3 6
v -1 4 6
v 0 3 6
v 0 4 6
v -2 3 2
v -2 4 2
v -2 5 2
v -2 6 2
v -1 0 2
v -1 1 2
v -1 3 2
v 0 0 2
v 0 3 2
v 1 3 2
v 1 6 2
v -3 3 1
v -3 4 1
v -3 5 1
v -3 6 1
v -2 0 1
v -2 1 1
v -2 3 1
v -2 4 1
v -2 5 1
v -2 6 1
v -1 0 1
v -1 1 1
v -3 4 -0
v -3 5 -0
v -2 4 -0
v -2 5 -0
v -1 0 -3
v -1 2 -3
v 0 0 -3
v 0 2 -3
v -1 2 -4
v -1 3 -4
v 0 2 -4
v 0 3 -4
v -1 0 3
v 0 0 3
v -2 0 2
v -1 0 2
v 0 0 2
v -2 0 1
v -1 0 1
v 0 0 1
v -1 0 -3
v 0 0 -3
v -1 2 -3
v 0 2 -3
v -1 2 -4
v 0 2 -4
v -1 3 7
v 0 3 7
v -1 3 6
v 0 3 6
v -2 3 4
v 1 3 4
v -1 3 3
v 0 3 3
v -3 3 2
v -2 3 2
v -1 3 2
v 0 3 2
v 1 3 2
v -3 3 1
v -2 3 1
v -1 4 6
v 0 4 6
v -2 4 5
v -1 4 5
v 0 4 5
v 1 4 5
v -2 4 4
v 1 4 4
v -3 4 3
v -2 4 3
v -3 4 2
v -2 4 2
v -3 4 1
v -2 4 1
v -3 4 -0
v -2 4 -0
v -2 1 2
v -1 1 2
v -2 1 1
v -1 1 1
v 0 1 1
v -1 1 -2
v 0 1 -2
v -1 2 -2
v 0 2 -2
v -1 2 -3
v 0 2 -3
v -1 3 -3
v 0 3 -3
v -1 3 -4
v 0 3 -4
v -1 4 7
v 0 4 7
v -1 4 6
v 0 4 6
v -1 5 6
v 0 5 6
v -2 5 5
v -1 5 5
v 0 5 5
v 1 5 5
v -2 5 4
v -1 5 4
v 0 5 4
v 1 5 4
v -3 5 3
v -2 5 3
v -1 5 3
v 0 5 3
v -3 5 2
v -2 5 2
v -3 5 1
v -2 5 1
v -3 5 -0
v -2 5 -0
v -2 6 4
v -1 6 4
v 0 6 4
v 1 6 4
v -2 6 3
v -1 6 3
v 0 6 3
v 1 6 3
v -3 6 2
v -2 6 2
v 1 6 2
v -3 6 1
v -2 6 1

# faces
f 4/1/1 2/1/1 1/1/1
f 5/1/1 2/1/1 4/1/1
f 7/1/1 4/1/1 3/1/1
f 8/2/1 5/2/1 4/2/1
f 8/1/1 4/1/1 7/1/1
f 9/1/1 6/1/1 5/1/1
f 9/2/1 5/2/1 8/2/1
f 10/1/1 6/1/1 9/1/1
f 11/1/1 9/1/1 8/1/1
f 12/1/1 9/1/1 11/1/1
f 15/6/1 14/6/1 13/6/1
f 16/6/1 14/6/1 15/6/1
f 20/6/1 18/6/1 17/6/1
f 21/6/1 18/6/1 20/6/1
f 22/6/1 18/6/1 21/6/1
f 23/6/1 20/6/1 19/6/1
f 23/6/1 21/6/1 20/6/1
f 24/6/1 21/6/1 23/6/1
f 25/6/1 21/6/1 24/6/1
f 27/3/1 25/3/1 24/3/1
f 28/6/1 26/6/1 25/6/1
f 28/3/1 25/3/1 27/3/1
f 29/6/1 26/6/1 28/6/1
f 34/6/1 31/6/1 30/6/1
f 35/6/1 33/6/1 32/6/1
f 36/6/1 33/6/1 35/6/1
f 37/6/1 33/6/1 36/6/1
f 38/6/1 33/6/1 37/6/1
f 42/6/1 34/6/1 30/6/1
f 43/6/1 34/6/1 42/6/1
f 44/6/1 39/6/1 38/6/1
f 45/6/1 39/6/1 44/6/1
f 46/4/1 41/4/1 40/4/1
f 47/4/1 41/4/1 46/4/1
f 49/5/1 48/5/1 47/5/1
f 50/5/1 48/5/1 49/5/1
f 53/3/1 52/3/1 51/3/1
f 54/3/1 52/3/1 53/3/1
f 55/1/2 56/1/2 57/1/2
f 57/1/2 56/1/2 58/1/2
f 57/2/2 58/2/2 60/2/2
f 58/1/2 59/1/2 61/1/2
f 60/2/2 58/2/2 61/2/2
f 61/1/2 59/1/2 62/1/2
f 60/1/2 61/1/2 63/1/2
f 63/1/2 61/1/2 64/1/2
f 65/6/2 66/6/2 67/6/2
f 67/6/2 66/6/2 68/6/2
f 69/3/2 70/3/2 71/3/2
f 71/3/2 70/3/2 72/3/2
f 75/6/2 76/6/2 77/6/2
f 77/6/2 76/6/2 78/6/2
f 78/6/2 76/6/2 79/6/2
f 79/6/2 76/6/2 80/6/2
f 73/6/2 74/6/2 84/6/2
f 84/6/2 74/6/2 85/6/2
f 80/6/2 81/6/2 86/6/2
f 86/6/2 81/6/2 87/6/2
f 82/4/2 83/4/2 88/4/2
f 88/4/2 83/4/2 89/4/2
f 89/5/2 90/5/2 91/5/2
f 91/5/2 90/5/2 92/5/2
f 93/6/2 94/6/2 96/6/2
f 95/6/2 96/6/2 97/6/2
f 96/6/2 94/6/2 98/6/2
f 97/6/2 96/6/2 98/6/2
f 98/6/2 94/6/2 99/6/2
f 98/3/2 99/3/2 100/3/2
f 99/6/2 94/6/2 101/6/2
f 100/3/2 99/3/2 101/3/2
f 101/6/2 94/6/2 102/6/2
f 105/4/3 104/4/3 103/4/3
f 106/4/3 104/4/3 105/4/3
f 109/5/3 108/5/3 107/5/3
f 110/5/3 108/5/3 109/5/3
f 113/6/3 112/6/3 111/6/3
f 114/6/3 112/6/3 113/6/3
f 117/6/3 116/6/3 115/6/3
f 118/6/3 116/6/3 117/6/3
f 123/3/3 122/3/3 121/3/3
f 124/3/3 122/3/3 123/3/3
f 127/6/3 120/6/3 119/6/3
f 128/6/3 120/6/3 127/6/3
f 129/3/3 126/3/3 125/3/3
f 130/3/3 126/3/3 129/3/3
f 133/1/3 132/1/3 131/1/3
f 134/1/3 132/1/3 133/1/3
f 139/6/3 136/6/3 135/6/3
f 140/6/3 136/6/3 139/6/3
f 141/6/3 138/6/3 137/6/3
f 142/6/3 138/6/3 141/6/3
f 149/1/3 144/1/3 143/1/3
f 150/1/3 144/1/3 149/1/3
f 151/1/3 146/1/3 145/1/3
f 152/1/3 146/1/3 151/1/3
f 153/6/3 148/6/3 147/6/3
f 154/6/3 148/6/3 153/6/3
f 157/6/3 156/6/3 155/6/3
f 158/6/3 156/6/3 157/6/3
f 161/6/3 160/6/3 159/6/3
f 162/6/3 160/6/3 161/6/3
f 165/6/3 164/6/3 163/6/3
f 166/6/3 164/6/3 165/6/3
f 167/4/4 168/4/4 169/4/4
f 169/4/4 168/4/4 170/4/4
f 171/6/4 172/6/4 177/6/4
f 172/6/4 173/6/4 177/6/4
f 173/6/4 174/6/4 177/6/4
f 175/6/4 176/6/4 178/6/4
f 176/6/4 177/6/4 178/6/4
f 177/6/4 174/6/4 179/6/4
f 178/6/4 177/6/4 179/6/4
f 179/6/4 174/6/4 180/6/4
f 180/6/4 174/6/4 181/6/4
f 182/1/4 183/1/4 188/1/4
f 188/1/4 183/1/4 189/1/4
f 184/1/4 185/1/4 190/1/4
f 190/1/4 185/1/4 191/1/4
f 186/6/4 187/6/4 192/6/4
f 192/6/4 187/6/4 193/6/4
f 194/1/4 195/1/4 196/1/4
f 196/1/4 195/1/4 197/1/4
f 198/6/4 199/6/4 200/6/4
f 200/6/4 199/6/4 201/6/4
f 202/6/4 203/6/4 204/6/4
f 204/6/4 203/6/4 205/6/4
f 209/6/5 207/6/5 206/6/5
f 210/6/5 207/6/5 209/6/5
f 211/6/5 209/6/5 208/6/5
f 212/6/5 209/6/5 211/6/5
f 214/6/5 213/6/5 212/6/5
f 215/6/5 213/6/5 214/6/5
f 218/6/5 217/6/5 216/6/5
f 219/6/5 217/6/5 218/6/5
f 222/4/5 221/4/5 220/4/5
f 223/4/5 221/4/5 222/4/5
f 226/6/5 225/6/5 224/6/5
f 227/6/5 225/6/5 226/6/5
f 229/6/5 226/6/5 224/6/5
f 230/6/5 226/6/5 229/6/5
f 231/6/5 225/6/5 227/6/5
f 232/6/5 225/6/5 231/6/5
f 233/1/5 229/1/5 228/1/5
f 234/1/5 229/1/5 233/1/5
f 238/5/5 236/5/5 235/5/5
f 239/5/5 236/5/5 238/5/5
f 241/6/5 238/6/5 237/6/5
f 241/6/5 240/6/5 239/6/5
f 241/6/5 239/6/5 238/6/5
f 242/6/5 240/6/5 241/6/5
f 245/1/5 244/1/5 243/1/5
f 246/1/5 244/1/5 245/1/5
f 249/1/5 248/1/5 247/1/5
f 250/1/5 248/1/5 249/1/5
f 251/6/6 252/6/6 253/6/6
f 253/6/6 252/6/6 254/6/6
f 254/6/6 255/6/6 256/6/6
f 256/6/6 255/6/6 257/6/6
f 258/6/6 259/6/6 260/6/6
f 260/6/6 259/6/6 261/6/6
f 262/6/6 263/6/6 264/6/6
f 264/6/6 263/6/6 265/6/6
f 266/4/6 267/4/6 268/4/6
f 268/4/6 267/4/6 269/4/6
f 270/5/6 271/5/6 273/5/6
f 273/5/6 271/5/6 274/5/6
f 272/6/6 273/6/6 276/6/6
f 274/6/6 275/6/6 276/6/6
f 273/6/6 274/6/6 276/6/6
f 276/6/6 275/6/6 277/6/6
f 277/6/6 275/6/6 278/6/6
f 278/6/6 275/6/6 279/6/6
f 277/6/6 278/6/6 282/6/6
f 282/6/6 278/6/6 283/6/6
f 280/1/6 281/1/6 284/1/6
f 284/1/6 281/1/6 285/1/6
f 286/1/6 287/1/6 288/1/6
f 288/1/6 287/1/6 289/1/6
f 290/3/6 291/3/6 294/3/6
f 294/3/6 291/3/6 295/3/6
f 292/3/6 293/3/6 296/3/6
f 296/3/6 293/3/6 297/3/6
f 294/6/6 295/6/6 299/6/6
f 295/6/6 296/6/6 299/6/6
f 296/6/6 297/6/6 299/6/6
f 299/6/6 297/6/6 300/6/6
f 298/1/6 299/1/6 301/1/6
f 301/1/6 299/1/6 302/1/6
