# MagicaVoxel @ ephtracy

# material
mtllib UI_tilemodel02.mtl
usemtl palette

# normals
vn -1 0 0
vn 1 0 0
vn 0 0 1
vn 0 0 -1
vn 0 -1 0
vn 0 1 0

# texcoords
vt 0.720703 0.5
vt 0.783203 0.5
vt 0.814453 0.5
vt 0.845703 0.5
vt 0.876953 0.5
vt 0.908203 0.5
vt 0.939453 0.5

# verts
v -4.5 0 2.5
v -4.5 0 1.5
v -4.5 0 -0.5
v -4.5 0 -1.5
v -4.5 0 -2.5
v -4.5 1 2.5
v -4.5 1 1.5
v -4.5 1 0.5
v -4.5 1 -0.5
v -4.5 1 -1.5
v -4.5 1 -2.5
v -4.5 2 1.5
v -4.5 2 0.5
v -3.5 0 -0.5
v -3.5 0 -1.5
v -3.5 0 -2.5
v -3.5 0 -3.5
v -3.5 1 0.5
v -3.5 1 -0.5
v -3.5 1 -1.5
v -3.5 1 -2.5
v -3.5 1 -3.5
v -3.5 2 0.5
v -3.5 2 -0.5
v -3.5 2 -1.5
v -3.5 2 -2.5
v -3.5 2 -3.5
v -3.5 3 0.5
v -3.5 3 -0.5
v -3.5 4 0.5
v -3.5 4 -0.5
v -2.5 0 4.5
v -2.5 0 3.5
v -2.5 0 2.5
v -2.5 0 1.5
v -2.5 0 -3.5
v -2.5 0 -4.5
v -2.5 1 4.5
v -2.5 1 3.5
v -2.5 1 2.5
v -2.5 1 1.5
v -2.5 1 -0.5
v -2.5 1 -1.5
v -2.5 1 -3.5
v -2.5 1 -4.5
v -2.5 2 -0.5
v -2.5 2 -1.5
v -2.5 3 -0.5
v -2.5 3 -1.5
v -1.5 0 1.5
v -1.5 0 0.5
v -1.5 0 -1.5
v -1.5 0 -2.5
v -1.5 1 1.5
v -1.5 1 0.5
v -1.5 1 -1.5
v -1.5 1 -2.5
v -1.5 2 1.5
v -1.5 2 0.5
v -1.5 2 -1.5
v -1.5 2 -2.5
v -1.5 3 1.5
v -1.5 3 0.5
v -1.5 3 -0.5
v -1.5 4 0.5
v -1.5 4 -0.5
v -0.5 0 -2.5
v -0.5 0 -3.5
v -0.5 1 2.5
v -0.5 1 1.5
v -0.5 1 -2.5
v -0.5 1 -3.5
v -0.5 2 2.5
v -0.5 2 1.5
v -0.5 4 0.5
v -0.5 4 -0.5
v -0.5 5 0.5
v -0.5 5 -0.5
v 0.5 0 3.5
v 0.5 0 2.5
v 0.5 0 -3.5
v 0.5 0 -4.5
v 0.5 1 3.5
v 0.5 1 2.5
v 0.5 1 -3.5
v 0.5 1 -4.5
v 0.5 2 -0.5
v 0.5 2 -1.5
v 0.5 3 1.5
v 0.5 3 0.5
v 0.5 3 -0.5
v 0.5 3 -1.5
v 0.5 4 1.5
v 0.5 4 0.5
v 1.5 0 2.5
v 1.5 0 1.5
v 1.5 0 -2.5
v 1.5 0 -3.5
v 1.5 1 2.5
v 1.5 1 1.5
v 1.5 1 -1.5
v 1.5 1 -2.5
v 1.5 1 -3.5
v 1.5 2 -1.5
v 1.5 2 -2.5
v 1.5 2 -3.5
v 1.5 3 -0.5
v 1.5 3 -1.5
v 1.5 4 1.5
v 1.5 4 0.5
v 1.5 4 -0.5
v 1.5 4 -1.5
v 1.5 5 1.5
v 1.5 5 0.5
v 1.5 5 -0.5
v 1.5 6 0.5
v 1.5 6 -0.5
v 2.5 0 4.5
v 2.5 0 3.5
v 2.5 0 -3.5
v 2.5 0 -4.5
v 2.5 1 4.5
v 2.5 1 3.5
v 2.5 1 2.5
v 2.5 1 1.5
v 2.5 1 -3.5
v 2.5 1 -4.5
v 2.5 2 2.5
v 2.5 2 1.5
v 3.5 0 3.5
v 3.5 0 2.5
v 3.5 0 -1.5
v 3.5 0 -2.5
v 3.5 1 3.5
v 3.5 1 2.5
v 3.5 1 -1.5
v 3.5 1 -2.5
v -3.5 0 2.5
v -3.5 0 1.5
v -3.5 1 2.5
v -3.5 1 1.5
v -2.5 0 1.5
v -2.5 0 0.5
v -2.5 0 -1.5
v -2.5 0 -2.5
v -2.5 0 -3.5
v -2.5 1 1.5
v -2.5 1 0.5
v -2.5 1 -1.5
v -2.5 1 -2.5
v -2.5 1 -3.5
v -2.5 2 1.5
v -2.5 2 0.5
v -2.5 2 -1.5
v -2.5 2 -2.5
v -2.5 2 -3.5
v -2.5 3 0.5
v -2.5 3 -0.5
v -2.5 4 0.5
v -2.5 4 -0.5
v -1.5 0 4.5
v -1.5 0 3.5
v -1.5 0 2.5
v -1.5 0 -3.5
v -1.5 0 -4.5
v -1.5 1 4.5
v -1.5 1 3.5
v -1.5 1 2.5
v -1.5 1 -3.5
v -1.5 1 -4.5
v -0.5 1 -1.5
v -0.5 1 -2.5
v -0.5 2 -0.5
v -0.5 2 -1.5
v -0.5 2 -2.5
v -0.5 3 -0.5
v -0.5 3 -1.5
v 0.5 0 2.5
v 0.5 0 1.5
v 0.5 0 -2.5
v 0.5 0 -3.5
v 0.5 1 2.5
v 0.5 1 1.5
v 0.5 1 -2.5
v 0.5 1 -3.5
v 0.5 2 2.5
v 0.5 2 1.5
v 0.5 4 0.5
v 0.5 4 -0.5
v 0.5 5 0.5
v 0.5 5 -0.5
v 1.5 0 3.5
v 1.5 0 2.5
v 1.5 0 -3.5
v 1.5 0 -4.5
v 1.5 1 3.5
v 1.5 1 2.5
v 1.5 1 -3.5
v 1.5 1 -4.5
v 2.5 0 -1.5
v 2.5 0 -2.5
v 2.5 1 -0.5
v 2.5 1 -1.5
v 2.5 1 -2.5
v 2.5 1 -3.5
v 2.5 2 1.5
v 2.5 2 0.5
v 2.5 2 -0.5
v 2.5 2 -1.5
v 2.5 2 -2.5
v 2.5 2 -3.5
v 2.5 3 1.5
v 2.5 3 0.5
v 2.5 3 -0.5
v 2.5 3 -1.5
v 2.5 4 1.5
v 2.5 4 0.5
v 2.5 4 -0.5
v 2.5 4 -1.5
v 2.5 5 1.5
v 2.5 5 0.5
v 2.5 5 -0.5
v 2.5 6 0.5
v 2.5 6 -0.5
v 3.5 0 4.5
v 3.5 0 3.5
v 3.5 0 -0.5
v 3.5 0 -1.5
v 3.5 0 -3.5
v 3.5 0 -4.5
v 3.5 1 4.5
v 3.5 1 3.5
v 3.5 1 2.5
v 3.5 1 1.5
v 3.5 1 0.5
v 3.5 1 -0.5
v 3.5 1 -1.5
v 3.5 1 -3.5
v 3.5 1 -4.5
v 3.5 2 2.5
v 3.5 2 1.5
v 3.5 2 0.5
v 3.5 2 -0.5
v 3.5 3 0.5
v 3.5 3 -0.5
v 3.5 4 0.5
v 3.5 4 -0.5
v 4.5 0 3.5
v 4.5 0 2.5
v 4.5 0 1.5
v 4.5 0 0.5
v 4.5 0 -0.5
v 4.5 0 -1.5
v 4.5 0 -2.5
v 4.5 0 -3.5
v 4.5 1 3.5
v 4.5 1 2.5
v 4.5 1 1.5
v 4.5 1 0.5
v 4.5 1 -0.5
v 4.5 1 -1.5
v 4.5 1 -2.5
v 4.5 1 -3.5
v -2.5 0 4.5
v -2.5 1 4.5
v -1.5 0 4.5
v -1.5 1 4.5
v 2.5 0 4.5
v 2.5 1 4.5
v 3.5 0 4.5
v 3.5 1 4.5
v 0.5 0 3.5
v 0.5 1 3.5
v 1.5 0 3.5
v 1.5 1 3.5
v 3.5 0 3.5
v 3.5 1 3.5
v 4.5 0 3.5
v 4.5 1 3.5
v -4.5 0 2.5
v -4.5 1 2.5
v -3.5 0 2.5
v -3.5 1 2.5
v -1.5 0 2.5
v -1.5 1 2.5
v -0.5 1 2.5
v -0.5 2 2.5
v 0.5 0 2.5
v 0.5 1 2.5
v 0.5 2 2.5
v 1.5 0 2.5
v 1.5 1 2.5
v 2.5 0 2.5
v 2.5 1 2.5
v 2.5 2 2.5
v 3.5 0 2.5
v 3.5 1 2.5
v 3.5 2 2.5
v -4.5 1 1.5
v -4.5 2 1.5
v -3.5 0 1.5
v -3.5 1 1.5
v -3.5 2 1.5
v -2.5 0 1.5
v -2.5 1 1.5
v -2.5 2 1.5
v -1.5 1 1.5
v -1.5 2 1.5
v -1.5 3 1.5
v -0.5 1 1.5
v -0.5 2 1.5
v -0.5 3 1.5
v 0.5 0 1.5
v 0.5 1 1.5
v 0.5 2 1.5
v 0.5 3 1.5
v 0.5 4 1.5
v 1.5 0 1.5
v 1.5 1 1.5
v 1.5 4 1.5
v 1.5 5 1.5
v 2.5 1 1.5
v 2.5 2 1.5
v 2.5 3 1.5
v 2.5 4 1.5
v 2.5 5 1.5
v -3.5 2 0.5
v -3.5 3 0.5
v -3.5 4 0.5
v -2.5 0 0.5
v -2.5 1 0.5
v -2.5 2 0.5
v -2.5 3 0.5
v -2.5 4 0.5
v -1.5 0 0.5
v -1.5 1 0.5
v -1.5 2 0.5
v -1.5 3 0.5
v -1.5 4 0.5
v -0.5 3 0.5
v -0.5 4 0.5
v -0.5 5 0.5
v 0.5 3 0.5
v 0.5 4 0.5
v 0.5 5 0.5
v 1.5 5 0.5
v 1.5 6 0.5
v 2.5 2 0.5
v 2.5 3 0.5
v 2.5 4 0.5
v 2.5 5 0.5
v 2.5 6 0.5
v 3.5 2 0.5
v 3.5 3 0.5
v 3.5 4 0.5
v -4.5 0 -1.5
v -4.5 1 -1.5
v -3.5 0 -1.5
v -3.5 1 -1.5
v -3.5 2 -1.5
v -2.5 1 -1.5
v -2.5 2 -1.5
v 3.5 0 -1.5
v 3.5 1 -1.5
v 4.5 0 -1.5
v 4.5 1 -1.5
v 2.5 0 -2.5
v 2.5 1 -2.5
v 3.5 0 -2.5
v 3.5 1 -2.5
v -2.5 0 -3.5
v -2.5 1 -3.5
v -1.5 0 -3.5
v -1.5 1 -3.5
v 0.5 0 -3.5
v 0.5 1 -3.5
v 1.5 0 -3.5
v 1.5 1 -3.5
v 2.5 0 3.5
v 2.5 1 3.5
v 3.5 0 3.5
v 3.5 1 3.5
v 0.5 0 2.5
v 0.5 1 2.5
v 1.5 0 2.5
v 1.5 1 2.5
v -2.5 0 1.5
v -2.5 1 1.5
v -1.5 0 1.5
v -1.5 1 1.5
v -4.5 1 0.5
v -4.5 2 0.5
v -3.5 1 0.5
v -3.5 2 0.5
v -4.5 0 -0.5
v -4.5 1 -0.5
v -3.5 0 -0.5
v -3.5 1 -0.5
v -3.5 2 -0.5
v -3.5 3 -0.5
v -3.5 4 -0.5
v -2.5 1 -0.5
v -2.5 2 -0.5
v -2.5 3 -0.5
v -2.5 4 -0.5
v -1.5 3 -0.5
v -1.5 4 -0.5
v -0.5 2 -0.5
v -0.5 3 -0.5
v -0.5 4 -0.5
v -0.5 5 -0.5
v 0.5 2 -0.5
v 0.5 3 -0.5
v 0.5 4 -0.5
v 0.5 5 -0.5
v 1.5 3 -0.5
v 1.5 4 -0.5
v 1.5 5 -0.5
v 1.5 6 -0.5
v 2.5 1 -0.5
v 2.5 2 -0.5
v 2.5 3 -0.5
v 2.5 4 -0.5
v 2.5 5 -0.5
v 2.5 6 -0.5
v 3.5 0 -0.5
v 3.5 1 -0.5
v 3.5 2 -0.5
v 3.5 3 -0.5
v 3.5 4 -0.5
v 4.5 0 -0.5
v 4.5 1 -0.5
v -2.5 0 -1.5
v -2.5 1 -1.5
v -2.5 2 -1.5
v -2.5 3 -1.5
v -1.5 0 -1.5
v -1.5 1 -1.5
v -1.5 2 -1.5
v -0.5 1 -1.5
v -0.5 2 -1.5
v -0.5 3 -1.5
v 0.5 1 -1.5
v 0.5 2 -1.5
v 0.5 3 -1.5
v 1.5 1 -1.5
v 1.5 2 -1.5
v 1.5 3 -1.5
v 1.5 4 -1.5
v 2.5 0 -1.5
v 2.5 1 -1.5
v 2.5 2 -1.5
v 2.5 3 -1.5
v 2.5 4 -1.5
v 3.5 0 -1.5
v 3.5 1 -1.5
v -4.5 0 -2.5
v -4.5 1 -2.5
v -3.5 0 -2.5
v -3.5 1 -2.5
v -1.5 0 -2.5
v -1.5 1 -2.5
v -1.5 2 -2.5
v -0.5 0 -2.5
v -0.5 1 -2.5
v -0.5 2 -2.5
v 0.5 0 -2.5
v 0.5 1 -2.5
v 1.5 0 -2.5
v 1.5 1 -2.5
v -3.5 0 -3.5
v -3.5 1 -3.5
v -3.5 2 -3.5
v -2.5 0 -3.5
v -2.5 1 -3.5
v -2.5 2 -3.5
v -0.5 0 -3.5
v -0.5 1 -3.5
v 0.5 0 -3.5
v 0.5 1 -3.5
v 1.5 0 -3.5
v 1.5 1 -3.5
v 1.5 2 -3.5
v 2.5 0 -3.5
v 2.5 1 -3.5
v 2.5 2 -3.5
v 3.5 0 -3.5
v 3.5 1 -3.5
v 4.5 0 -3.5
v 4.5 1 -3.5
v -2.5 0 -4.5
v -2.5 1 -4.5
v -1.5 0 -4.5
v -1.5 1 -4.5
v 0.5 0 -4.5
v 0.5 1 -4.5
v 1.5 0 -4.5
v 1.5 1 -4.5
v 2.5 0 -4.5
v 2.5 1 -4.5
v 3.5 0 -4.5
v 3.5 1 -4.5
v -2.5 0 4.5
v -1.5 0 4.5
v 2.5 0 4.5
v 3.5 0 4.5
v -2.5 0 3.5
v -1.5 0 3.5
v 0.5 0 3.5
v 1.5 0 3.5
v 2.5 0 3.5
v 3.5 0 3.5
v 4.5 0 3.5
v -4.5 0 2.5
v -3.5 0 2.5
v -2.5 0 2.5
v -1.5 0 2.5
v 0.5 0 2.5
v 1.5 0 2.5
v 2.5 0 2.5
v 3.5 0 2.5
v 4.5 0 2.5
v -4.5 0 1.5
v -3.5 0 1.5
v -2.5 0 1.5
v -1.5 0 1.5
v 0.5 0 1.5
v 1.5 0 1.5
v 2.5 0 1.5
v 4.5 0 1.5
v -3.5 0 0.5
v -2.5 0 0.5
v -1.5 0 0.5
v 3.5 0 0.5
v 4.5 0 0.5
v -4.5 0 -0.5
v -3.5 0 -0.5
v 3.5 0 -0.5
v 4.5 0 -0.5
v -4.5 0 -1.5
v -3.5 0 -1.5
v -2.5 0 -1.5
v -1.5 0 -1.5
v 0.5 0 -1.5
v 1.5 0 -1.5
v 2.5 0 -1.5
v 3.5 0 -1.5
v 4.5 0 -1.5
v -4.5 0 -2.5
v -3.5 0 -2.5
v -2.5 0 -2.5
v -1.5 0 -2.5
v -0.5 0 -2.5
v 0.5 0 -2.5
v 1.5 0 -2.5
v 2.5 0 -2.5
v 3.5 0 -2.5
v 4.5 0 -2.5
v -3.5 0 -3.5
v -2.5 0 -3.5
v -1.5 0 -3.5
v -0.5 0 -3.5
v 0.5 0 -3.5
v 1.5 0 -3.5
v 2.5 0 -3.5
v 3.5 0 -3.5
v 4.5 0 -3.5
v -2.5 0 -4.5
v -1.5 0 -4.5
v 0.5 0 -4.5
v 1.5 0 -4.5
v 2.5 0 -4.5
v 3.5 0 -4.5
v -2.5 1 4.5
v -1.5 1 4.5
v 2.5 1 4.5
v 3.5 1 4.5
v -2.5 1 3.5
v -1.5 1 3.5
v 0.5 1 3.5
v 1.5 1 3.5
v 2.5 1 3.5
v 3.5 1 3.5
v 4.5 1 3.5
v -4.5 1 2.5
v -3.5 1 2.5
v -2.5 1 2.5
v -1.5 1 2.5
v -0.5 1 2.5
v 0.5 1 2.5
v 1.5 1 2.5
v 2.5 1 2.5
v 3.5 1 2.5
v 4.5 1 2.5
v -4.5 1 1.5
v -3.5 1 1.5
v -2.5 1 1.5
v -1.5 1 1.5
v -0.5 1 1.5
v 1.5 1 1.5
v 2.5 1 1.5
v 3.5 1 1.5
v 4.5 1 1.5
v -4.5 1 0.5
v -3.5 1 0.5
v 3.5 1 0.5
v 4.5 1 0.5
v -4.5 1 -0.5
v -3.5 1 -0.5
v -2.5 1 -0.5
v 2.5 1 -0.5
v 3.5 1 -0.5
v 4.5 1 -0.5
v -4.5 1 -1.5
v -3.5 1 -1.5
v -2.5 1 -1.5
v -0.5 1 -1.5
v 0.5 1 -1.5
v 1.5 1 -1.5
v 2.5 1 -1.5
v 3.5 1 -1.5
v 4.5 1 -1.5
v -4.5 1 -2.5
v -3.5 1 -2.5
v -0.5 1 -2.5
v 0.5 1 -2.5
v 1.5 1 -2.5
v 2.5 1 -2.5
v 3.5 1 -2.5
v 4.5 1 -2.5
v -2.5 1 -3.5
v -1.5 1 -3.5
v -0.5 1 -3.5
v 0.5 1 -3.5
v 1.5 1 -3.5
v 2.5 1 -3.5
v 3.5 1 -3.5
v 4.5 1 -3.5
v -2.5 1 -4.5
v -1.5 1 -4.5
v 0.5 1 -4.5
v 1.5 1 -4.5
v 2.5 1 -4.5
v 3.5 1 -4.5
v -0.5 2 2.5
v 0.5 2 2.5
v 2.5 2 2.5
v 3.5 2 2.5
v -4.5 2 1.5
v -3.5 2 1.5
v -2.5 2 1.5
v -0.5 2 1.5
v 0.5 2 1.5
v 2.5 2 1.5
v 3.5 2 1.5
v -4.5 2 0.5
v -3.5 2 0.5
v -2.5 2 0.5
v 2.5 2 0.5
v 3.5 2 0.5
v -0.5 2 -0.5
v 0.5 2 -0.5
v -3.5 2 -1.5
v -2.5 2 -1.5
v -1.5 2 -1.5
v -0.5 2 -1.5
v 0.5 2 -1.5
v 1.5 2 -1.5
v 2.5 2 -1.5
v -3.5 2 -2.5
v -2.5 2 -2.5
v -1.5 2 -2.5
v -0.5 2 -2.5
v 1.5 2 -2.5
v 2.5 2 -2.5
v -3.5 2 -3.5
v -2.5 2 -3.5
v 1.5 2 -3.5
v 2.5 2 -3.5
v -1.5 3 1.5
v -0.5 3 1.5
v 0.5 3 1.5
v -2.5 3 0.5
v -1.5 3 0.5
v -0.5 3 0.5
v 0.5 3 0.5
v -2.5 3 -0.5
v -1.5 3 -0.5
v -0.5 3 -0.5
v 0.5 3 -0.5
v 1.5 3 -0.5
v -2.5 3 -1.5
v -0.5 3 -1.5
v 0.5 3 -1.5
v 1.5 3 -1.5
v 0.5 4 1.5
v 1.5 4 1.5
v -3.5 4 0.5
v -2.5 4 0.5
v -1.5 4 0.5
v -0.5 4 0.5
v 0.5 4 0.5
v 1.5 4 0.5
v 2.5 4 0.5
v 3.5 4 0.5
v -3.5 4 -0.5
v -2.5 4 -0.5
v -1.5 4 -0.5
v -0.5 4 -0.5
v 0.5 4 -0.5
v 1.5 4 -0.5
v 2.5 4 -0.5
v 3.5 4 -0.5
v 1.5 4 -1.5
v 2.5 4 -1.5
v 1.5 5 1.5
v 2.5 5 1.5
v -0.5 5 0.5
v 0.5 5 0.5
v 1.5 5 0.5
v 2.5 5 0.5
v -0.5 5 -0.5
v 0.5 5 -0.5
v 1.5 6 0.5
v 2.5 6 0.5
v 1.5 6 -0.5
v 2.5 6 -0.5

# faces
f 6/3/1 2/3/1 1/3/1
f 7/7/1 3/7/1 2/7/1
f 7/3/1 2/3/1 6/3/1
f 8/7/1 3/7/1 7/7/1
f 9/7/1 3/7/1 8/7/1
f 10/7/1 5/7/1 4/7/1
f 11/7/1 5/7/1 10/7/1
f 12/2/1 8/2/1 7/2/1
f 13/2/1 8/2/1 12/2/1
f 19/7/1 15/7/1 14/7/1
f 20/7/1 15/7/1 19/7/1
f 21/3/1 17/3/1 16/3/1
f 22/3/1 17/3/1 21/3/1
f 23/7/1 19/7/1 18/7/1
f 24/7/1 19/7/1 23/7/1
f 25/3/1 21/3/1 20/3/1
f 26/6/1 22/6/1 21/6/1
f 26/3/1 21/3/1 25/3/1
f 27/6/1 22/6/1 26/6/1
f 28/5/1 24/5/1 23/5/1
f 29/5/1 24/5/1 28/5/1
f 30/1/1 29/1/1 28/1/1
f 31/1/1 29/1/1 30/1/1
f 38/3/1 33/3/1 32/3/1
f 39/6/1 34/6/1 33/6/1
f 39/3/1 33/3/1 38/3/1
f 40/3/1 35/3/1 34/3/1
f 40/6/1 34/6/1 39/6/1
f 41/3/1 35/3/1 40/3/1
f 44/3/1 37/3/1 36/3/1
f 45/3/1 37/3/1 44/3/1
f 46/7/1 43/7/1 42/7/1
f 47/7/1 43/7/1 46/7/1
f 48/5/1 47/5/1 46/5/1
f 49/5/1 47/5/1 48/5/1
f 54/7/1 51/7/1 50/7/1
f 55/7/1 51/7/1 54/7/1
f 56/7/1 53/7/1 52/7/1
f 57/7/1 53/7/1 56/7/1
f 58/2/1 55/2/1 54/2/1
f 59/2/1 55/2/1 58/2/1
f 60/2/1 57/2/1 56/2/1
f 61/2/1 57/2/1 60/2/1
f 62/5/1 59/5/1 58/5/1
f 63/5/1 59/5/1 62/5/1
f 65/5/1 64/5/1 63/5/1
f 66/5/1 64/5/1 65/5/1
f 71/3/1 68/3/1 67/3/1
f 72/3/1 68/3/1 71/3/1
f 73/6/1 70/6/1 69/6/1
f 74/6/1 70/6/1 73/6/1
f 77/1/1 76/1/1 75/1/1
f 78/1/1 76/1/1 77/1/1
f 83/3/1 80/3/1 79/3/1
f 84/3/1 80/3/1 83/3/1
f 85/3/1 82/3/1 81/3/1
f 86/3/1 82/3/1 85/3/1
f 91/7/1 88/7/1 87/7/1
f 92/7/1 88/7/1 91/7/1
f 93/5/1 90/5/1 89/5/1
f 94/5/1 90/5/1 93/5/1
f 99/6/1 96/6/1 95/6/1
f 100/6/1 96/6/1 99/6/1
f 102/3/1 98/3/1 97/3/1
f 103/3/1 98/3/1 102/3/1
f 104/3/1 102/3/1 101/3/1
f 105/6/1 103/6/1 102/6/1
f 105/3/1 102/3/1 104/3/1
f 106/6/1 103/6/1 105/6/1
f 111/3/1 108/3/1 107/3/1
f 112/3/1 108/3/1 111/3/1
f 113/4/1 110/4/1 109/4/1
f 114/7/1 111/7/1 110/7/1
f 114/4/1 110/4/1 113/4/1
f 115/7/1 111/7/1 114/7/1
f 116/1/1 115/1/1 114/1/1
f 117/1/1 115/1/1 116/1/1
f 122/3/1 119/3/1 118/3/1
f 123/3/1 119/3/1 122/3/1
f 126/3/1 121/3/1 120/3/1
f 127/3/1 121/3/1 126/3/1
f 128/3/1 125/3/1 124/3/1
f 129/3/1 125/3/1 128/3/1
f 134/6/1 131/6/1 130/6/1
f 135/6/1 131/6/1 134/6/1
f 136/2/1 133/2/1 132/2/1
f 137/2/1 133/2/1 136/2/1
f 138/3/2 139/3/2 140/3/2
f 140/3/2 139/3/2 141/3/2
f 142/3/2 143/3/2 147/3/2
f 147/3/2 143/3/2 148/3/2
f 144/7/2 145/7/2 149/7/2
f 145/3/2 146/3/2 150/3/2
f 149/7/2 145/7/2 150/7/2
f 150/3/2 146/3/2 151/3/2
f 147/7/2 148/7/2 152/7/2
f 152/7/2 148/7/2 153/7/2
f 149/3/2 150/3/2 154/3/2
f 150/6/2 151/6/2 155/6/2
f 154/3/2 150/3/2 155/3/2
f 155/6/2 151/6/2 156/6/2
f 157/1/2 158/1/2 159/1/2
f 159/1/2 158/1/2 160/1/2
f 161/3/2 162/3/2 166/3/2
f 162/6/2 163/6/2 167/6/2
f 166/3/2 162/3/2 167/3/2
f 167/6/2 163/6/2 168/6/2
f 164/3/2 165/3/2 169/3/2
f 169/3/2 165/3/2 170/3/2
f 171/2/2 172/2/2 174/2/2
f 174/2/2 172/2/2 175/2/2
f 173/5/2 174/5/2 176/5/2
f 176/5/2 174/5/2 177/5/2
f 178/3/2 179/3/2 182/3/2
f 182/3/2 179/3/2 183/3/2
f 180/3/2 181/3/2 184/3/2
f 184/3/2 181/3/2 185/3/2
f 182/6/2 183/6/2 186/6/2
f 186/6/2 183/6/2 187/6/2
f 188/1/2 189/1/2 190/1/2
f 190/1/2 189/1/2 191/1/2
f 192/3/2 193/3/2 196/3/2
f 196/3/2 193/3/2 197/3/2
f 194/3/2 195/3/2 198/3/2
f 198/3/2 195/3/2 199/3/2
f 200/2/2 201/2/2 203/2/2
f 203/2/2 201/2/2 204/2/2
f 202/7/2 203/7/2 208/7/2
f 203/3/2 204/3/2 209/3/2
f 208/7/2 203/7/2 209/7/2
f 204/6/2 205/6/2 210/6/2
f 209/3/2 204/3/2 210/3/2
f 210/6/2 205/6/2 211/6/2
f 206/7/2 207/7/2 212/7/2
f 212/7/2 207/7/2 213/7/2
f 208/7/2 209/7/2 214/7/2
f 214/7/2 209/7/2 215/7/2
f 212/5/2 213/5/2 216/5/2
f 216/5/2 213/5/2 217/5/2
f 214/3/2 215/3/2 218/3/2
f 218/3/2 215/3/2 219/3/2
f 216/4/2 217/4/2 220/4/2
f 217/7/2 218/7/2 221/7/2
f 220/4/2 217/4/2 221/4/2
f 221/7/2 218/7/2 222/7/2
f 221/1/2 222/1/2 223/1/2
f 223/1/2 222/1/2 224/1/2
f 225/3/2 226/3/2 231/3/2
f 231/3/2 226/3/2 232/3/2
f 227/7/2 228/7/2 236/7/2
f 236/7/2 228/7/2 237/7/2
f 229/3/2 230/3/2 238/3/2
f 238/3/2 230/3/2 239/3/2
f 233/3/2 234/3/2 240/3/2
f 234/2/2 235/2/2 241/2/2
f 240/3/2 234/3/2 241/3/2
f 235/7/2 236/7/2 242/7/2
f 241/2/2 235/2/2 242/2/2
f 242/7/2 236/7/2 243/7/2
f 242/2/2 243/2/2 244/2/2
f 244/2/2 243/2/2 245/2/2
f 244/5/2 245/5/2 246/5/2
f 246/5/2 245/5/2 247/5/2
f 248/6/2 249/6/2 256/6/2
f 249/2/2 250/2/2 257/2/2
f 256/6/2 249/6/2 257/6/2
f 250/7/2 251/7/2 258/7/2
f 257/2/2 250/2/2 258/2/2
f 251/2/2 252/2/2 259/2/2
f 258/7/2 251/7/2 259/7/2
f 259/2/2 252/2/2 260/2/2
f 253/2/2 254/2/2 261/2/2
f 254/3/2 255/3/2 262/3/2
f 261/2/2 254/2/2 262/2/2
f 262/3/2 255/3/2 263/3/2
f 266/3/3 265/3/3 264/3/3
f 267/3/3 265/3/3 266/3/3
f 270/3/3 269/3/3 268/3/3
f 271/3/3 269/3/3 270/3/3
f 274/3/3 273/3/3 272/3/3
f 275/3/3 273/3/3 274/3/3
f 278/6/3 277/6/3 276/6/3
f 279/6/3 277/6/3 278/6/3
f 282/3/3 281/3/3 280/3/3
f 283/3/3 281/3/3 282/3/3
f 286/3/3 285/3/3 284/3/3
f 288/3/3 286/3/3 284/3/3
f 289/6/3 287/6/3 286/6/3
f 289/3/3 286/3/3 288/3/3
f 290/6/3 287/6/3 289/6/3
f 293/6/3 292/6/3 291/6/3
f 294/6/3 292/6/3 293/6/3
f 296/2/3 294/2/3 293/2/3
f 297/3/3 295/3/3 294/3/3
f 297/2/3 294/2/3 296/2/3
f 298/3/3 295/3/3 297/3/3
f 302/2/3 300/2/3 299/2/3
f 303/2/3 300/2/3 302/2/3
f 304/3/3 302/3/3 301/3/3
f 305/7/3 303/7/3 302/7/3
f 305/3/3 302/3/3 304/3/3
f 306/7/3 303/7/3 305/7/3
f 310/2/3 308/2/3 307/2/3
f 311/5/3 309/5/3 308/5/3
f 311/2/3 308/2/3 310/2/3
f 312/5/3 309/5/3 311/5/3
f 315/7/3 312/7/3 311/7/3
f 316/7/3 312/7/3 315/7/3
f 318/7/3 314/7/3 313/7/3
f 319/2/3 315/2/3 314/2/3
f 319/7/3 314/7/3 318/7/3
f 320/5/3 317/5/3 316/5/3
f 322/2/3 315/2/3 319/2/3
f 323/7/3 316/7/3 315/7/3
f 323/2/3 315/2/3 322/2/3
f 324/5/3 320/5/3 316/5/3
f 324/7/3 316/7/3 323/7/3
f 325/4/3 321/4/3 320/4/3
f 325/5/3 320/5/3 324/5/3
f 326/4/3 321/4/3 325/4/3
f 332/5/3 328/5/3 327/5/3
f 333/1/3 329/1/3 328/1/3
f 333/5/3 328/5/3 332/5/3
f 334/1/3 329/1/3 333/1/3
f 335/7/3 331/7/3 330/7/3
f 336/2/3 332/2/3 331/2/3
f 336/7/3 331/7/3 335/7/3
f 337/5/3 333/5/3 332/5/3
f 337/2/3 332/2/3 336/2/3
f 338/5/3 333/5/3 337/5/3
f 340/5/3 339/5/3 338/5/3
f 341/5/3 339/5/3 340/5/3
f 343/5/3 341/5/3 340/5/3
f 344/1/3 342/1/3 341/1/3
f 344/5/3 341/5/3 343/5/3
f 345/1/3 342/1/3 344/1/3
f 351/1/3 347/1/3 346/1/3
f 352/1/3 347/1/3 351/1/3
f 353/2/3 349/2/3 348/2/3
f 354/5/3 350/5/3 349/5/3
f 354/2/3 349/2/3 353/2/3
f 355/5/3 350/5/3 354/5/3
f 358/7/3 357/7/3 356/7/3
f 359/7/3 357/7/3 358/7/3
f 361/3/3 360/3/3 359/3/3
f 362/3/3 360/3/3 361/3/3
f 365/2/3 364/2/3 363/2/3
f 366/2/3 364/2/3 365/2/3
f 369/6/3 368/6/3 367/6/3
f 370/6/3 368/6/3 369/6/3
f 373/3/3 372/3/3 371/3/3
f 374/3/3 372/3/3 373/3/3
f 377/3/3 376/3/3 375/3/3
f 378/3/3 376/3/3 377/3/3
f 379/3/4 380/3/4 381/3/4
f 381/3/4 380/3/4 382/3/4
f 383/3/4 384/3/4 385/3/4
f 385/3/4 384/3/4 386/3/4
f 387/3/4 388/3/4 389/3/4
f 389/3/4 388/3/4 390/3/4
f 391/2/4 392/2/4 393/2/4
f 393/2/4 392/2/4 394/2/4
f 395/7/4 396/7/4 397/7/4
f 397/7/4 396/7/4 398/7/4
f 398/7/4 399/7/4 402/7/4
f 399/5/4 400/5/4 403/5/4
f 402/7/4 399/7/4 403/7/4
f 400/1/4 401/1/4 404/1/4
f 403/5/4 400/5/4 404/5/4
f 404/1/4 401/1/4 405/1/4
f 406/5/4 407/5/4 409/5/4
f 409/5/4 407/5/4 410/5/4
f 408/7/4 409/7/4 412/7/4
f 409/5/4 410/5/4 413/5/4
f 412/7/4 409/7/4 413/7/4
f 410/1/4 411/1/4 414/1/4
f 413/5/4 410/5/4 414/5/4
f 414/1/4 411/1/4 415/1/4
f 413/5/4 414/5/4 416/5/4
f 416/5/4 414/5/4 417/5/4
f 417/7/4 418/7/4 423/7/4
f 418/1/4 419/1/4 424/1/4
f 423/7/4 418/7/4 424/7/4
f 424/1/4 419/1/4 425/1/4
f 420/7/4 421/7/4 427/7/4
f 421/2/4 422/2/4 428/2/4
f 427/7/4 421/7/4 428/7/4
f 422/5/4 423/5/4 429/5/4
f 428/2/4 422/2/4 429/2/4
f 429/5/4 423/5/4 430/5/4
f 426/2/4 427/2/4 431/2/4
f 431/2/4 427/2/4 432/2/4
f 433/7/4 434/7/4 437/7/4
f 434/7/4 435/7/4 437/7/4
f 437/7/4 435/7/4 438/7/4
f 435/5/4 436/5/4 439/5/4
f 438/7/4 435/7/4 439/7/4
f 439/5/4 436/5/4 441/5/4
f 441/5/4 436/5/4 442/5/4
f 440/7/4 441/7/4 443/7/4
f 443/7/4 441/7/4 444/7/4
f 443/2/4 444/2/4 446/2/4
f 444/7/4 445/7/4 447/7/4
f 446/2/4 444/2/4 447/2/4
f 447/7/4 445/7/4 448/7/4
f 447/7/4 448/7/4 452/7/4
f 448/3/4 449/3/4 453/3/4
f 452/7/4 448/7/4 453/7/4
f 453/3/4 449/3/4 454/3/4
f 450/7/4 451/7/4 455/7/4
f 455/7/4 451/7/4 456/7/4
f 457/7/4 458/7/4 459/7/4
f 459/7/4 458/7/4 460/7/4
f 461/7/4 462/7/4 464/7/4
f 462/2/4 463/2/4 465/2/4
f 464/7/4 462/7/4 465/7/4
f 465/2/4 463/2/4 466/2/4
f 467/3/4 468/3/4 469/3/4
f 469/3/4 468/3/4 470/3/4
f 471/3/4 472/3/4 474/3/4
f 472/6/4 473/6/4 475/6/4
f 474/3/4 472/3/4 475/3/4
f 475/6/4 473/6/4 476/6/4
f 477/3/4 478/3/4 479/3/4
f 479/3/4 478/3/4 480/3/4
f 481/3/4 482/3/4 484/3/4
f 482/6/4 483/6/4 485/6/4
f 484/3/4 482/3/4 485/3/4
f 485/6/4 483/6/4 486/6/4
f 487/3/4 488/3/4 489/3/4
f 489/3/4 488/3/4 490/3/4
f 491/3/4 492/3/4 493/3/4
f 493/3/4 492/3/4 494/3/4
f 495/3/4 496/3/4 497/3/4
f 497/3/4 496/3/4 498/3/4
f 499/3/4 500/3/4 501/3/4
f 501/3/4 500/3/4 502/3/4
f 507/3/5 504/3/5 503/3/5
f 508/3/5 504/3/5 507/3/5
f 511/3/5 506/3/5 505/3/5
f 512/3/5 506/3/5 511/3/5
f 516/6/5 508/6/5 507/6/5
f 517/6/5 508/6/5 516/6/5
f 518/3/5 510/3/5 509/3/5
f 519/3/5 510/3/5 518/3/5
f 521/6/5 513/6/5 512/6/5
f 522/6/5 513/6/5 521/6/5
f 523/3/5 515/3/5 514/3/5
f 524/3/5 515/3/5 523/3/5
f 525/3/5 517/3/5 516/3/5
f 525/3/5 518/3/5 517/3/5
f 526/3/5 518/3/5 525/3/5
f 527/3/5 518/3/5 526/3/5
f 528/6/5 520/6/5 519/6/5
f 529/2/5 522/2/5 521/2/5
f 529/2/5 521/2/5 520/2/5
f 529/6/5 520/6/5 528/6/5
f 530/2/5 522/2/5 529/2/5
f 531/7/5 524/7/5 523/7/5
f 531/3/5 525/3/5 524/3/5
f 532/3/5 525/3/5 531/3/5
f 533/7/5 527/7/5 526/7/5
f 533/7/5 528/7/5 527/7/5
f 533/7/5 530/7/5 529/7/5
f 533/7/5 529/7/5 528/7/5
f 534/7/5 530/7/5 533/7/5
f 535/7/5 530/7/5 534/7/5
f 536/7/5 532/7/5 531/7/5
f 536/7/5 531/7/5 523/7/5
f 536/7/5 533/7/5 532/7/5
f 536/7/5 534/7/5 533/7/5
f 537/7/5 534/7/5 536/7/5
f 538/2/5 535/2/5 534/2/5
f 538/7/5 534/7/5 537/7/5
f 539/2/5 535/2/5 538/2/5
f 541/7/5 538/7/5 537/7/5
f 542/7/5 538/7/5 541/7/5
f 543/7/5 538/7/5 542/7/5
f 544/7/5 538/7/5 543/7/5
f 545/7/5 538/7/5 544/7/5
f 546/7/5 538/7/5 545/7/5
f 547/7/5 538/7/5 546/7/5
f 549/7/5 541/7/5 540/7/5
f 549/7/5 542/7/5 541/7/5
f 550/7/5 542/7/5 549/7/5
f 551/7/5 542/7/5 550/7/5
f 552/7/5 544/7/5 543/7/5
f 553/7/5 544/7/5 552/7/5
f 554/3/5 545/3/5 544/3/5
f 554/7/5 544/7/5 553/7/5
f 555/2/5 546/2/5 545/2/5
f 555/3/5 545/3/5 554/3/5
f 556/2/5 546/2/5 555/2/5
f 557/2/5 548/2/5 547/2/5
f 558/2/5 548/2/5 557/2/5
f 559/3/5 551/3/5 550/3/5
f 560/3/5 551/3/5 559/3/5
f 562/3/5 554/3/5 553/3/5
f 563/3/5 554/3/5 562/3/5
f 564/3/5 556/3/5 555/3/5
f 565/6/5 557/6/5 556/6/5
f 565/3/5 556/3/5 564/3/5
f 566/3/5 558/3/5 557/3/5
f 566/6/5 557/6/5 565/6/5
f 567/3/5 558/3/5 566/3/5
f 568/3/5 561/3/5 560/3/5
f 569/3/5 561/3/5 568/3/5
f 570/3/5 564/3/5 563/3/5
f 571/3/5 564/3/5 570/3/5
f 572/3/5 566/3/5 565/3/5
f 573/3/5 566/3/5 572/3/5
f 574/3/6 575/3/6 578/3/6
f 578/3/6 575/3/6 579/3/6
f 576/3/6 577/3/6 582/3/6
f 582/3/6 577/3/6 583/3/6
f 578/6/6 579/6/6 587/6/6
f 587/6/6 579/6/6 588/6/6
f 580/3/6 581/3/6 590/3/6
f 590/3/6 581/3/6 591/3/6
f 583/6/6 584/6/6 593/6/6
f 593/6/6 584/6/6 594/6/6
f 585/3/6 586/3/6 595/3/6
f 595/3/6 586/3/6 596/3/6
f 588/3/6 589/3/6 597/3/6
f 587/3/6 588/3/6 597/3/6
f 597/3/6 589/3/6 598/3/6
f 598/3/6 589/3/6 599/3/6
f 591/6/6 592/6/6 600/6/6
f 600/6/6 592/6/6 601/6/6
f 593/2/6 594/2/6 602/2/6
f 602/2/6 594/2/6 603/2/6
f 602/7/6 603/7/6 606/7/6
f 606/7/6 603/7/6 607/7/6
f 604/7/6 605/7/6 608/7/6
f 608/7/6 605/7/6 609/7/6
f 606/2/6 607/2/6 612/2/6
f 612/2/6 607/2/6 613/2/6
f 609/7/6 610/7/6 615/7/6
f 615/7/6 610/7/6 616/7/6
f 611/7/6 612/7/6 620/7/6
f 620/7/6 612/7/6 621/7/6
f 614/7/6 615/7/6 623/7/6
f 623/7/6 615/7/6 624/7/6
f 617/7/6 618/7/6 625/7/6
f 618/3/6 619/3/6 626/3/6
f 625/7/6 618/7/6 626/7/6
f 626/3/6 619/3/6 627/3/6
f 621/2/6 622/2/6 629/2/6
f 629/2/6 622/2/6 630/2/6
f 625/3/6 626/3/6 633/3/6
f 633/3/6 626/3/6 634/3/6
f 628/6/6 629/6/6 636/6/6
f 629/3/6 630/3/6 637/3/6
f 636/6/6 629/6/6 637/6/6
f 637/3/6 630/3/6 638/3/6
f 631/3/6 632/3/6 639/3/6
f 639/3/6 632/3/6 640/3/6
f 634/3/6 635/3/6 641/3/6
f 641/3/6 635/3/6 642/3/6
f 636/3/6 637/3/6 643/3/6
f 643/3/6 637/3/6 644/3/6
f 645/6/6 646/6/6 652/6/6
f 652/6/6 646/6/6 653/6/6
f 647/3/6 648/3/6 654/3/6
f 654/3/6 648/3/6 655/3/6
f 649/2/6 650/2/6 656/2/6
f 650/7/6 651/7/6 657/7/6
f 656/2/6 650/2/6 657/2/6
f 657/7/6 651/7/6 658/7/6
f 654/2/6 655/2/6 659/2/6
f 659/2/6 655/2/6 660/2/6
f 661/7/6 662/7/6 666/7/6
f 666/7/6 662/7/6 667/7/6
f 663/3/6 664/3/6 670/3/6
f 670/3/6 664/3/6 671/3/6
f 665/2/6 666/2/6 672/2/6
f 672/2/6 666/2/6 673/2/6
f 668/3/6 669/3/6 674/3/6
f 674/3/6 669/3/6 675/3/6
f 670/6/6 671/6/6 676/6/6
f 676/6/6 671/6/6 677/6/6
f 674/6/6 675/6/6 678/6/6
f 678/6/6 675/6/6 679/6/6
f 680/5/6 681/5/6 684/5/6
f 681/7/6 682/7/6 685/7/6
f 684/5/6 681/5/6 685/5/6
f 685/7/6 682/7/6 686/7/6
f 683/5/6 684/5/6 687/5/6
f 687/5/6 684/5/6 688/5/6
f 688/5/6 689/5/6 692/5/6
f 687/5/6 688/5/6 692/5/6
f 692/5/6 689/5/6 693/5/6
f 690/7/6 691/7/6 694/7/6
f 694/7/6 691/7/6 695/7/6
f 696/5/6 697/5/6 702/5/6
f 702/5/6 697/5/6 703/5/6
f 698/1/6 699/1/6 706/1/6
f 706/1/6 699/1/6 707/1/6
f 700/5/6 701/5/6 708/5/6
f 708/5/6 701/5/6 709/5/6
f 702/5/6 703/5/6 710/5/6
f 710/5/6 703/5/6 711/5/6
f 704/5/6 705/5/6 712/5/6
f 712/5/6 705/5/6 713/5/6
f 711/3/6 712/3/6 714/3/6
f 714/3/6 712/3/6 715/3/6
f 716/4/6 717/4/6 720/4/6
f 720/4/6 717/4/6 721/4/6
f 718/1/6 719/1/6 722/1/6
f 722/1/6 719/1/6 723/1/6
f 724/1/6 725/1/6 726/1/6
f 726/1/6 725/1/6 727/1/6
