# MagicaVoxel @ ephtracy

# material
mtllib tile_river.mtl
usemtl palette

# normals
vn -1 0 0
vn 1 0 0
vn 0 0 1
vn 0 0 -1
vn 0 -1 0
vn 0 1 0

# texcoords
vt 0.724609 0.5
vt 0.787109 0.5
vt 0.880859 0.5
vt 0.912109 0.5
vt 0.943359 0.5

# verts
v -4.5 0 4.5
v -4.5 0 3.5
v -4.5 0 2.5
v -4.5 0 1.5
v -4.5 0 -1.5
v -4.5 0 -2.5
v -4.5 0 -4.5
v -4.5 1 4.5
v -4.5 1 3.5
v -4.5 1 2.5
v -4.5 1 1.5
v -4.5 1 -1.5
v -4.5 1 -2.5
v -4.5 1 -4.5
v 4.5 0 4.5
v 4.5 0 3.5
v 4.5 0 1.5
v 4.5 0 0.5
v 4.5 0 -0.5
v 4.5 0 -1.5
v 4.5 0 -2.5
v 4.5 0 -3.5
v 4.5 0 -4.5
v 4.5 1 4.5
v 4.5 1 3.5
v 4.5 1 1.5
v 4.5 1 0.5
v 4.5 1 -0.5
v 4.5 1 -1.5
v 4.5 1 -2.5
v 4.5 1 -3.5
v 4.5 1 -4.5
v -4.5 0 4.5
v -4.5 1 4.5
v -3.5 0 4.5
v -3.5 1 4.5
v -2.5 0 4.5
v -2.5 1 4.5
v -1.5 0 4.5
v -1.5 1 4.5
v -0.5 0 4.5
v -0.5 1 4.5
v 0.5 0 4.5
v 0.5 1 4.5
v 1.5 0 4.5
v 1.5 1 4.5
v 4.5 0 4.5
v 4.5 1 4.5
v -4.5 0 -4.5
v -4.5 1 -4.5
v -2.5 0 -4.5
v -2.5 1 -4.5
v -1.5 0 -4.5
v -1.5 1 -4.5
v 4.5 0 -4.5
v 4.5 1 -4.5
v -4.5 0 4.5
v -3.5 0 4.5
v -2.5 0 4.5
v -1.5 0 4.5
v -0.5 0 4.5
v 0.5 0 4.5
v 1.5 0 4.5
v 4.5 0 4.5
v -4.5 0 3.5
v -3.5 0 3.5
v -2.5 0 3.5
v -1.5 0 3.5
v -0.5 0 3.5
v 0.5 0 3.5
v 1.5 0 3.5
v 3.5 0 3.5
v 4.5 0 3.5
v -4.5 0 2.5
v -3.5 0 2.5
v -1.5 0 2.5
v -0.5 0 2.5
v 2.5 0 2.5
v 3.5 0 2.5
v -4.5 0 1.5
v -3.5 0 1.5
v -2.5 0 1.5
v -1.5 0 1.5
v -0.5 0 1.5
v 0.5 0 1.5
v 1.5 0 1.5
v 2.5 0 1.5
v 3.5 0 1.5
v 4.5 0 1.5
v -3.5 0 0.5
v -2.5 0 0.5
v -1.5 0 0.5
v -0.5 0 0.5
v 0.5 0 0.5
v 1.5 0 0.5
v 2.5 0 0.5
v 3.5 0 0.5
v 4.5 0 0.5
v -2.5 0 -0.5
v -1.5 0 -0.5
v -0.5 0 -0.5
v 0.5 0 -0.5
v 1.5 0 -0.5
v 2.5 0 -0.5
v 3.5 0 -0.5
v 4.5 0 -0.5
v -4.5 0 -1.5
v -3.5 0 -1.5
v -2.5 0 -1.5
v -1.5 0 -1.5
v -0.5 0 -1.5
v 0.5 0 -1.5
v 1.5 0 -1.5
v 2.5 0 -1.5
v 3.5 0 -1.5
v 4.5 0 -1.5
v -4.5 0 -2.5
v -3.5 0 -2.5
v -2.5 0 -2.5
v -1.5 0 -2.5
v -0.5 0 -2.5
v 0.5 0 -2.5
v 1.5 0 -2.5
v 2.5 0 -2.5
v 3.5 0 -2.5
v 4.5 0 -2.5
v -3.5 0 -3.5
v -2.5 0 -3.5
v -1.5 0 -3.5
v 0.5 0 -3.5
v 1.5 0 -3.5
v 3.5 0 -3.5
v 4.5 0 -3.5
v -4.5 0 -4.5
v -2.5 0 -4.5
v -1.5 0 -4.5
v 4.5 0 -4.5
v -4.5 1 4.5
v -3.5 1 4.5
v -2.5 1 4.5
v -1.5 1 4.5
v -0.5 1 4.5
v 0.5 1 4.5
v 1.5 1 4.5
v 4.5 1 4.5
v -4.5 1 3.5
v -3.5 1 3.5
v -2.5 1 3.5
v -1.5 1 3.5
v -0.5 1 3.5
v 0.5 1 3.5
v 1.5 1 3.5
v 3.5 1 3.5
v 4.5 1 3.5
v -4.5 1 2.5
v -3.5 1 2.5
v -1.5 1 2.5
v -0.5 1 2.5
v 2.5 1 2.5
v 3.5 1 2.5
v -4.5 1 1.5
v -3.5 1 1.5
v -2.5 1 1.5
v -1.5 1 1.5
v -0.5 1 1.5
v 0.5 1 1.5
v 1.5 1 1.5
v 2.5 1 1.5
v 3.5 1 1.5
v 4.5 1 1.5
v -3.5 1 0.5
v -2.5 1 0.5
v -1.5 1 0.5
v -0.5 1 0.5
v 0.5 1 0.5
v 1.5 1 0.5
v 2.5 1 0.5
v 3.5 1 0.5
v 4.5 1 0.5
v -2.5 1 -0.5
v -1.5 1 -0.5
v -0.5 1 -0.5
v 0.5 1 -0.5
v 1.5 1 -0.5
v 2.5 1 -0.5
v 3.5 1 -0.5
v 4.5 1 -0.5
v -4.5 1 -1.5
v -3.5 1 -1.5
v -2.5 1 -1.5
v -1.5 1 -1.5
v -0.5 1 -1.5
v 0.5 1 -1.5
v 1.5 1 -1.5
v 2.5 1 -1.5
v 3.5 1 -1.5
v 4.5 1 -1.5
v -4.5 1 -2.5
v -3.5 1 -2.5
v -2.5 1 -2.5
v -1.5 1 -2.5
v -0.5 1 -2.5
v 0.5 1 -2.5
v 1.5 1 -2.5
v 2.5 1 -2.5
v 3.5 1 -2.5
v 4.5 1 -2.5
v -3.5 1 -3.5
v -2.5 1 -3.5
v -1.5 1 -3.5
v 0.5 1 -3.5
v 1.5 1 -3.5
v 3.5 1 -3.5
v 4.5 1 -3.5
v -4.5 1 -4.5
v -2.5 1 -4.5
v -1.5 1 -4.5
v 4.5 1 -4.5

# faces
f 8/5/1 2/5/1 1/5/1
f 9/4/1 3/4/1 2/4/1
f 9/5/1 2/5/1 8/5/1
f 10/2/1 4/2/1 3/2/1
f 10/4/1 3/4/1 9/4/1
f 11/4/1 5/4/1 4/4/1
f 11/2/1 4/2/1 10/2/1
f 12/5/1 6/5/1 5/5/1
f 12/4/1 5/4/1 11/4/1
f 13/4/1 7/4/1 6/4/1
f 13/5/1 6/5/1 12/5/1
f 14/4/1 7/4/1 13/4/1
f 15/5/2 16/5/2 24/5/2
f 16/4/2 17/4/2 25/4/2
f 24/5/2 16/5/2 25/5/2
f 17/2/2 18/2/2 26/2/2
f 25/4/2 17/4/2 26/4/2
f 18/4/2 19/4/2 27/4/2
f 26/2/2 18/2/2 27/2/2
f 19/3/2 20/3/2 28/3/2
f 27/4/2 19/4/2 28/4/2
f 20/4/2 21/4/2 29/4/2
f 28/3/2 20/3/2 29/3/2
f 21/5/2 22/5/2 30/5/2
f 29/4/2 21/4/2 30/4/2
f 22/4/2 23/4/2 31/4/2
f 30/5/2 22/5/2 31/5/2
f 31/4/2 23/4/2 32/4/2
f 35/5/3 34/5/3 33/5/3
f 36/5/3 34/5/3 35/5/3
f 37/3/3 36/3/3 35/3/3
f 38/3/3 36/3/3 37/3/3
f 39/2/3 38/2/3 37/2/3
f 40/2/3 38/2/3 39/2/3
f 41/5/3 40/5/3 39/5/3
f 42/5/3 40/5/3 41/5/3
f 43/4/3 42/4/3 41/4/3
f 44/4/3 42/4/3 43/4/3
f 45/1/3 44/1/3 43/1/3
f 46/1/3 44/1/3 45/1/3
f 47/5/3 46/5/3 45/5/3
f 48/5/3 46/5/3 47/5/3
f 49/4/4 50/4/4 51/4/4
f 51/4/4 50/4/4 52/4/4
f 51/3/4 52/3/4 53/3/4
f 53/3/4 52/3/4 54/3/4
f 53/4/4 54/4/4 55/4/4
f 55/4/4 54/4/4 56/4/4
f 65/5/5 58/5/5 57/5/5
f 66/3/5 59/3/5 58/3/5
f 66/5/5 58/5/5 65/5/5
f 67/2/5 60/2/5 59/2/5
f 67/3/5 59/3/5 66/3/5
f 68/5/5 61/5/5 60/5/5
f 68/2/5 60/2/5 67/2/5
f 69/4/5 62/4/5 61/4/5
f 69/5/5 61/5/5 68/5/5
f 70/1/5 63/1/5 62/1/5
f 70/4/5 62/4/5 69/4/5
f 71/5/5 64/5/5 63/5/5
f 71/1/5 63/1/5 70/1/5
f 72/5/5 64/5/5 71/5/5
f 73/5/5 64/5/5 72/5/5
f 74/4/5 66/4/5 65/4/5
f 75/3/5 67/3/5 66/3/5
f 75/4/5 66/4/5 74/4/5
f 76/4/5 68/4/5 67/4/5
f 76/4/5 69/4/5 68/4/5
f 77/5/5 70/5/5 69/5/5
f 77/4/5 69/4/5 76/4/5
f 78/3/5 71/3/5 70/3/5
f 78/3/5 72/3/5 71/3/5
f 79/4/5 73/4/5 72/4/5
f 79/3/5 72/3/5 78/3/5
f 80/2/5 75/2/5 74/2/5
f 81/3/5 67/3/5 75/3/5
f 81/2/5 75/2/5 80/2/5
f 82/4/5 76/4/5 67/4/5
f 82/3/5 67/3/5 81/3/5
f 83/3/5 77/3/5 76/3/5
f 83/4/5 76/4/5 82/4/5
f 84/5/5 70/5/5 77/5/5
f 84/3/5 77/3/5 83/3/5
f 85/3/5 78/3/5 70/3/5
f 85/5/5 70/5/5 84/5/5
f 86/3/5 78/3/5 85/3/5
f 87/1/5 79/1/5 78/1/5
f 87/3/5 78/3/5 86/3/5
f 88/4/5 73/4/5 79/4/5
f 88/1/5 79/1/5 87/1/5
f 89/4/5 73/4/5 88/4/5
f 90/4/5 81/4/5 80/4/5
f 90/1/5 82/1/5 81/1/5
f 91/4/5 83/4/5 82/4/5
f 91/1/5 82/1/5 90/1/5
f 92/5/5 84/5/5 83/5/5
f 92/4/5 83/4/5 91/4/5
f 93/4/5 85/4/5 84/4/5
f 93/5/5 84/5/5 92/5/5
f 94/3/5 86/3/5 85/3/5
f 94/4/5 85/4/5 93/4/5
f 95/1/5 87/1/5 86/1/5
f 95/3/5 86/3/5 94/3/5
f 96/4/5 88/4/5 87/4/5
f 96/1/5 87/1/5 95/1/5
f 97/2/5 89/2/5 88/2/5
f 97/4/5 88/4/5 96/4/5
f 98/2/5 89/2/5 97/2/5
f 99/3/5 91/3/5 90/3/5
f 99/5/5 92/5/5 91/5/5
f 100/3/5 93/3/5 92/3/5
f 100/5/5 92/5/5 99/5/5
f 101/1/5 94/1/5 93/1/5
f 101/3/5 93/3/5 100/3/5
f 102/5/5 95/5/5 94/5/5
f 102/1/5 94/1/5 101/1/5
f 103/4/5 96/4/5 95/4/5
f 103/5/5 95/5/5 102/5/5
f 104/5/5 97/5/5 96/5/5
f 104/4/5 96/4/5 103/4/5
f 105/4/5 98/4/5 97/4/5
f 105/5/5 97/5/5 104/5/5
f 106/4/5 98/4/5 105/4/5
f 107/4/5 90/4/5 80/4/5
f 108/3/5 99/3/5 90/3/5
f 108/4/5 90/4/5 107/4/5
f 109/4/5 100/4/5 99/4/5
f 109/3/5 99/3/5 108/3/5
f 109/4/5 101/4/5 100/4/5
f 110/4/5 101/4/5 109/4/5
f 111/2/5 102/2/5 101/2/5
f 111/4/5 101/4/5 110/4/5
f 112/4/5 104/4/5 103/4/5
f 112/2/5 102/2/5 111/2/5
f 112/4/5 103/4/5 102/4/5
f 112/4/5 105/4/5 104/4/5
f 113/4/5 105/4/5 112/4/5
f 114/4/5 105/4/5 113/4/5
f 115/3/5 106/3/5 105/3/5
f 115/4/5 105/4/5 114/4/5
f 116/3/5 106/3/5 115/3/5
f 117/5/5 108/5/5 107/5/5
f 118/2/5 109/2/5 108/2/5
f 118/5/5 108/5/5 117/5/5
f 119/4/5 110/4/5 109/4/5
f 119/2/5 109/2/5 118/2/5
f 120/1/5 111/1/5 110/1/5
f 120/4/5 110/4/5 119/4/5
f 121/4/5 112/4/5 111/4/5
f 121/1/5 111/1/5 120/1/5
f 121/4/5 113/4/5 112/4/5
f 122/4/5 113/4/5 121/4/5
f 123/3/5 114/3/5 113/3/5
f 123/4/5 113/4/5 122/4/5
f 124/2/5 115/2/5 114/2/5
f 124/3/5 114/3/5 123/3/5
f 125/4/5 116/4/5 115/4/5
f 125/2/5 115/2/5 124/2/5
f 126/4/5 116/4/5 125/4/5
f 127/4/5 118/4/5 117/4/5
f 127/3/5 119/3/5 118/3/5
f 127/3/5 122/3/5 121/3/5
f 127/3/5 120/3/5 119/3/5
f 127/3/5 121/3/5 120/3/5
f 128/3/5 122/3/5 127/3/5
f 129/3/5 122/3/5 128/3/5
f 130/1/5 123/1/5 122/1/5
f 130/3/5 122/3/5 129/3/5
f 131/3/5 125/3/5 124/3/5
f 131/1/5 123/1/5 130/1/5
f 131/3/5 124/3/5 123/3/5
f 132/5/5 126/5/5 125/5/5
f 132/3/5 125/3/5 131/3/5
f 133/5/5 126/5/5 132/5/5
f 134/4/5 128/4/5 127/4/5
f 134/4/5 127/4/5 117/4/5
f 135/3/5 129/3/5 128/3/5
f 135/4/5 128/4/5 134/4/5
f 136/4/5 131/4/5 130/4/5
f 136/3/5 129/3/5 135/3/5
f 136/4/5 130/4/5 129/4/5
f 136/4/5 132/4/5 131/4/5
f 136/4/5 133/4/5 132/4/5
f 137/4/5 133/4/5 136/4/5
f 138/5/6 139/5/6 146/5/6
f 139/3/6 140/3/6 147/3/6
f 146/5/6 139/5/6 147/5/6
f 140/2/6 141/2/6 148/2/6
f 147/3/6 140/3/6 148/3/6
f 141/5/6 142/5/6 149/5/6
f 148/2/6 141/2/6 149/2/6
f 142/4/6 143/4/6 150/4/6
f 149/5/6 142/5/6 150/5/6
f 143/1/6 144/1/6 151/1/6
f 150/4/6 143/4/6 151/4/6
f 144/5/6 145/5/6 152/5/6
f 151/1/6 144/1/6 152/1/6
f 152/5/6 145/5/6 153/5/6
f 153/5/6 145/5/6 154/5/6
f 146/4/6 147/4/6 155/4/6
f 147/3/6 148/3/6 156/3/6
f 155/4/6 147/4/6 156/4/6
f 148/4/6 149/4/6 157/4/6
f 149/4/6 150/4/6 157/4/6
f 150/5/6 151/5/6 158/5/6
f 157/4/6 150/4/6 158/4/6
f 151/3/6 152/3/6 159/3/6
f 152/3/6 153/3/6 159/3/6
f 153/4/6 154/4/6 160/4/6
f 159/3/6 153/3/6 160/3/6
f 155/2/6 156/2/6 161/2/6
f 156/3/6 148/3/6 162/3/6
f 161/2/6 156/2/6 162/2/6
f 148/4/6 157/4/6 163/4/6
f 162/3/6 148/3/6 163/3/6
f 157/3/6 158/3/6 164/3/6
f 163/4/6 157/4/6 164/4/6
f 158/5/6 151/5/6 165/5/6
f 164/3/6 158/3/6 165/3/6
f 151/3/6 159/3/6 166/3/6
f 165/5/6 151/5/6 166/5/6
f 166/3/6 159/3/6 167/3/6
f 159/1/6 160/1/6 168/1/6
f 167/3/6 159/3/6 168/3/6
f 160/4/6 154/4/6 169/4/6
f 168/1/6 160/1/6 169/1/6
f 169/4/6 154/4/6 170/4/6
f 161/4/6 162/4/6 171/4/6
f 162/1/6 163/1/6 171/1/6
f 163/4/6 164/4/6 172/4/6
f 171/1/6 163/1/6 172/1/6
f 164/5/6 165/5/6 173/5/6
f 172/4/6 164/4/6 173/4/6
f 165/4/6 166/4/6 174/4/6
f 173/5/6 165/5/6 174/5/6
f 166/3/6 167/3/6 175/3/6
f 174/4/6 166/4/6 175/4/6
f 167/1/6 168/1/6 176/1/6
f 175/3/6 167/3/6 176/3/6
f 168/4/6 169/4/6 177/4/6
f 176/1/6 168/1/6 177/1/6
f 169/2/6 170/2/6 178/2/6
f 177/4/6 169/4/6 178/4/6
f 178/2/6 170/2/6 179/2/6
f 171/3/6 172/3/6 180/3/6
f 172/5/6 173/5/6 180/5/6
f 173/3/6 174/3/6 181/3/6
f 180/5/6 173/5/6 181/5/6
f 174/1/6 175/1/6 182/1/6
f 181/3/6 174/3/6 182/3/6
f 175/5/6 176/5/6 183/5/6
f 182/1/6 175/1/6 183/1/6
f 176/4/6 177/4/6 184/4/6
f 183/5/6 176/5/6 184/5/6
f 177/5/6 178/5/6 185/5/6
f 184/4/6 177/4/6 185/4/6
f 178/4/6 179/4/6 186/4/6
f 185/5/6 178/5/6 186/5/6
f 186/4/6 179/4/6 187/4/6
f 161/4/6 171/4/6 188/4/6
f 171/3/6 180/3/6 189/3/6
f 188/4/6 171/4/6 189/4/6
f 180/4/6 181/4/6 190/4/6
f 189/3/6 180/3/6 190/3/6
f 181/4/6 182/4/6 190/4/6
f 190/4/6 182/4/6 191/4/6
f 182/2/6 183/2/6 192/2/6
f 191/4/6 182/4/6 192/4/6
f 184/4/6 185/4/6 193/4/6
f 192/2/6 183/2/6 193/2/6
f 183/4/6 184/4/6 193/4/6
f 185/4/6 186/4/6 193/4/6
f 193/4/6 186/4/6 194/4/6
f 194/4/6 186/4/6 195/4/6
f 186/3/6 187/3/6 196/3/6
f 195/4/6 186/4/6 196/4/6
f 196/3/6 187/3/6 197/3/6
f 188/5/6 189/5/6 198/5/6
f 189/2/6 190/2/6 199/2/6
f 198/5/6 189/5/6 199/5/6
f 190/4/6 191/4/6 200/4/6
f 199/2/6 190/2/6 200/2/6
f 191/1/6 192/1/6 201/1/6
f 200/4/6 191/4/6 201/4/6
f 192/4/6 193/4/6 202/4/6
f 201/1/6 192/1/6 202/1/6
f 193/4/6 194/4/6 202/4/6
f 202/4/6 194/4/6 203/4/6
f 194/3/6 195/3/6 204/3/6
f 203/4/6 194/4/6 204/4/6
f 195/2/6 196/2/6 205/2/6
f 204/3/6 195/3/6 205/3/6
f 196/4/6 197/4/6 206/4/6
f 205/2/6 196/2/6 206/2/6
f 206/4/6 197/4/6 207/4/6
f 198/4/6 199/4/6 208/4/6
f 199/3/6 200/3/6 208/3/6
f 202/3/6 203/3/6 208/3/6
f 200/3/6 201/3/6 208/3/6
f 201/3/6 202/3/6 208/3/6
f 208/3/6 203/3/6 209/3/6
f 209/3/6 203/3/6 210/3/6
f 203/1/6 204/1/6 211/1/6
f 210/3/6 203/3/6 211/3/6
f 205/3/6 206/3/6 212/3/6
f 211/1/6 204/1/6 212/1/6
f 204/3/6 205/3/6 212/3/6
f 206/5/6 207/5/6 213/5/6
f 212/3/6 206/3/6 213/3/6
f 213/5/6 207/5/6 214/5/6
f 208/4/6 209/4/6 215/4/6
f 198/4/6 208/4/6 215/4/6
f 209/3/6 210/3/6 216/3/6
f 215/4/6 209/4/6 216/4/6
f 211/4/6 212/4/6 217/4/6
f 216/3/6 210/3/6 217/3/6
f 210/4/6 211/4/6 217/4/6
f 212/4/6 213/4/6 217/4/6
f 213/4/6 214/4/6 217/4/6
f 217/4/6 214/4/6 218/4/6
